<svg xmlns="http://www.w3.org/2000/svg" viewBox="0 0 150 41" width="150" height="41">
	<style>
		tspan { white-space:pre }
		.shp0 { fill: #f7941d } 
		.shp1 { fill: #000000 } 
		.shp2 { fill: #fff952 } 
		.shp3 { fill: #ffbd4a } 
		.shp4 { fill: #fff96c } 
		.shp5 { fill: #ffc34d } 
		.shp6 { fill: #ffc35c } 
	</style>
	<g id="Background">
		<path id="Path 0" class="shp0" d="M7.44 3.4C7.44 3.6 7.36 3.85 7.24 3.96C7.11 4.09 7.14 4.31 7.34 4.62C7.51 4.87 7.75 5.07 7.89 5.07C8.03 5.06 8.32 5.25 8.55 5.48C8.77 5.71 9.04 5.9 9.15 5.89C9.26 5.89 9.5 6.13 9.67 6.44C9.87 6.78 9.97 7.31 9.93 7.76L9.85 8.52C8.84 7.75 8.48 7.52 8.39 7.52C8.31 7.51 8.24 7.58 8.24 7.66C8.23 7.75 8.6 8.09 9.05 8.42C9.85 9.01 9.87 9.07 9.86 10.2L9.85 11.37C8.84 10.8 8.36 10.56 8.14 10.48C7.77 10.33 7.76 10.34 8.07 10.69C8.26 10.89 8.73 11.24 9.13 11.47C9.69 11.78 9.86 12 9.85 12.43C9.85 12.74 9.78 12.99 9.7 13C9.62 13 9.3 12.82 9 12.59C8.68 12.35 8.4 12.26 8.34 12.38C8.29 12.49 8.56 12.81 8.95 13.09C9.57 13.54 9.65 13.7 9.65 14.51C9.65 15.01 9.61 15.43 9.55 15.43C9.5 15.43 9.2 15.24 8.9 15.01C8.59 14.79 8.28 14.6 8.19 14.61C8.11 14.61 8.04 14.68 8.05 14.77C8.05 14.85 8.41 15.17 8.85 15.48C9.46 15.9 9.65 16.17 9.65 16.59C9.65 16.9 9.58 17.49 9.5 17.91L9.35 18.67C7.19 17.47 7.17 17.46 7.74 17.96C8.07 18.25 8.59 18.64 8.89 18.83L9.44 19.18C9.45 24.5 9.42 24.76 9.1 24.76C8.81 24.76 8.8 24.81 9 25.01C9.15 25.16 9.25 25.76 9.25 26.44L9.25 27.6C8.08 26.7 7.45 26.17 7.1 25.85L6.46 25.27C6.28 26.13 6.19 26.68 6.13 27.05C6.05 27.56 6.07 27.61 6.22 27.3C6.32 27.08 6.45 26.73 6.52 26.54C6.62 26.23 6.81 26.3 7.89 27.08L9.15 27.98L9.28 31.36C8.56 30.82 7.96 30.41 7.49 30.1C7.02 29.79 6.53 29.28 6.39 28.97C6.25 28.67 6.11 28.44 6.08 28.47C6.06 28.49 6.11 28.88 6.19 29.33C6.28 29.78 6.45 30.14 6.57 30.14C6.69 30.14 7.35 30.55 8.03 31.05L9.26 31.97C9.25 33.78 9.18 34.3 9.1 34.3C9.02 34.3 8.65 34 8.28 33.64C7.91 33.28 7.48 32.96 7.33 32.93C7.17 32.9 7.03 32.95 7.03 33.03C7.03 33.12 7.48 33.55 8.03 34C8.59 34.44 9.1 34.99 9.16 35.22C9.22 35.44 9.2 36.21 9.1 36.94C9.01 37.67 8.96 38.67 9 39.17C9.07 40.01 9.1 40.05 9.34 39.68C9.53 39.39 9.66 37.38 9.83 32.37C9.96 28.58 10.2 21 10.38 15.53C10.6 8.53 10.76 5.54 10.93 5.45C11.06 5.37 11.88 5.25 12.77 5.19C13.65 5.12 16.86 5.07 19.91 5.08C22.95 5.09 28.06 5.04 31.27 4.97C34.47 4.9 40.45 4.62 44.54 4.34C48.63 4.07 52 3.82 52.03 3.8C52.06 3.77 52.04 3.6 51.98 3.4C51.89 3.08 51.53 3.04 48.16 3.04C45.74 3.04 44.47 3.12 44.54 3.25C44.59 3.36 44.34 3.45 43.93 3.45C43.55 3.45 43.23 3.36 43.23 3.25C43.23 3.14 43.07 3.05 42.88 3.05C42.62 3.05 42.6 3.09 42.8 3.2C42.94 3.28 43.08 3.44 43.1 3.55C43.12 3.66 42.63 3.8 42.02 3.86C41.42 3.92 40.79 3.87 40.63 3.76C40.43 3.61 40.33 3.63 40.28 3.81C40.24 3.98 39.72 4.06 38.61 4.06C37.51 4.06 36.97 3.98 36.9 3.81C36.82 3.6 36.78 3.6 36.7 3.81C36.63 3.98 36.11 4.06 35.09 4.06C34.06 4.06 33.55 3.98 33.49 3.81C33.43 3.62 33.35 3.63 33.2 3.86C33.05 4.07 32.55 4.18 31.47 4.21C30.24 4.25 29.96 4.21 29.96 3.96C29.96 3.79 29.85 3.65 29.71 3.65C29.57 3.64 29.64 3.5 29.86 3.34C30.08 3.17 30.17 3.04 30.06 3.03C29.95 3.03 29.75 3.14 29.61 3.29C29.47 3.43 29.4 3.69 29.46 3.86C29.54 4.07 29.38 4.21 28.91 4.32C28.55 4.4 27.96 4.47 27.6 4.47C27.08 4.47 26.94 4.38 26.94 4.06C26.94 3.84 26.83 3.65 26.69 3.65C26.55 3.64 26.62 3.5 26.84 3.34C27.23 3.05 27.22 3.04 26.64 3.04C26.31 3.05 26.13 3.12 26.24 3.2C26.35 3.28 26.46 3.6 26.49 3.91C26.54 4.46 26.54 4.47 25.23 4.47C23.96 4.47 23.92 4.45 23.73 3.86C23.62 3.52 23.41 3.25 23.27 3.25C23.11 3.25 23.12 3.32 23.32 3.45C23.53 3.58 23.54 3.65 23.37 3.65C23.19 3.65 23.18 3.76 23.32 4.06C23.52 4.45 23.46 4.47 21.92 4.47C20.36 4.47 20.3 4.45 20.21 3.96C20.15 3.68 20.15 3.36 20.21 3.25C20.26 3.14 20.15 3.05 19.96 3.05C19.69 3.05 19.62 3.19 19.65 3.66L19.71 4.26C17.45 4.27 16.17 4.33 15.41 4.39C14.11 4.5 14.02 4.48 13.95 4.08C13.91 3.85 13.78 3.65 13.67 3.65C13.56 3.65 13.47 3.72 13.47 3.81C13.47 3.89 13.58 4.07 13.72 4.2C13.92 4.39 13.78 4.47 13.07 4.58C12.57 4.65 11.99 4.68 11.78 4.64C11.57 4.6 11.25 4.28 11.08 3.92C10.9 3.57 10.6 3.22 10.41 3.16C10.09 3.06 10.09 3.11 10.46 3.75C10.68 4.15 10.86 4.56 10.86 4.67C10.86 4.78 10.7 4.92 10.51 4.98C10.28 5.05 9.89 4.82 9.4 4.32C8.98 3.9 8.68 3.44 8.74 3.3C8.81 3.12 8.63 3.04 8.14 3.04C7.61 3.04 7.44 3.13 7.44 3.4Z" />
		<path id="Path 1" class="shp1" d="M8.73 3.3C8.65 3.45 8.92 3.87 9.38 4.32C9.88 4.82 10.28 5.05 10.51 4.98C10.7 4.92 10.86 4.78 10.86 4.67C10.86 4.56 10.68 4.15 10.46 3.75C10.14 3.2 9.93 3.04 9.46 3.04C9.13 3.04 8.81 3.16 8.73 3.3ZM10.97 3.33C10.91 3.51 10.99 3.88 11.16 4.16C11.4 4.57 11.61 4.66 12.22 4.65C12.63 4.64 13.2 4.56 13.47 4.49C13.81 4.39 13.89 4.3 13.72 4.2C13.58 4.12 13.47 3.97 13.47 3.86C13.47 3.74 13.56 3.65 13.67 3.65C13.78 3.65 13.92 3.84 13.97 4.06C14.07 4.43 14.2 4.46 15.43 4.37C16.18 4.32 17.45 4.27 18.25 4.27C19.67 4.26 19.71 4.25 19.71 3.75C19.71 3.39 19.58 3.22 19.25 3.15C19 3.1 17.67 3.09 16.29 3.13C14.9 3.18 13.68 3.22 13.57 3.22C13.46 3.23 12.86 3.18 12.23 3.12C11.3 3.03 11.07 3.07 10.97 3.33ZM20.23 3.23C20.16 3.35 20.15 3.68 20.21 3.96C20.3 4.45 20.36 4.47 21.92 4.47C23.46 4.47 23.52 4.45 23.32 4.06C23.17 3.75 23.2 3.63 23.42 3.55C23.63 3.48 23.76 3.62 23.83 3.96C23.92 4.44 24 4.47 25.23 4.47L26.54 4.47C26.46 3.43 26.31 3.19 26.04 3.12C25.82 3.06 25.18 3.06 24.63 3.13C24.08 3.19 23.49 3.24 23.32 3.24C23.16 3.24 22.42 3.18 21.69 3.12C20.84 3.05 20.32 3.09 20.23 3.23ZM26.94 3.34C26.77 3.51 26.7 3.65 26.79 3.65C26.87 3.65 26.94 3.84 26.94 4.06C26.94 4.38 27.08 4.47 27.6 4.47C27.96 4.47 28.55 4.4 28.91 4.32C29.4 4.2 29.54 4.08 29.46 3.81C29.39 3.56 29.45 3.48 29.66 3.55C29.82 3.61 29.96 3.79 29.96 3.96C29.96 4.21 30.24 4.25 31.47 4.21C32.55 4.18 33.05 4.07 33.2 3.86C33.35 3.63 33.43 3.62 33.49 3.81C33.55 3.98 34.06 4.06 35.09 4.06C36.11 4.06 36.63 3.98 36.7 3.81C36.78 3.6 36.82 3.6 36.9 3.81C36.97 3.98 37.51 4.06 38.61 4.06C39.72 4.06 40.24 3.98 40.28 3.81C40.33 3.63 40.43 3.61 40.63 3.76C40.79 3.87 41.37 3.92 41.92 3.86C42.5 3.8 42.95 3.65 42.98 3.5C43.01 3.36 42.83 3.21 42.58 3.16C42.33 3.11 40.99 3.1 39.61 3.14C38.23 3.18 36.94 3.22 36.75 3.23C36.55 3.24 35.76 3.25 34.99 3.25C34.21 3.25 33.44 3.25 33.28 3.25C33.11 3.25 32.3 3.25 31.47 3.25C30.64 3.25 29.85 3.24 29.71 3.24C29.57 3.23 28.96 3.18 28.35 3.12C27.51 3.04 27.17 3.09 26.94 3.34ZM52.04 3.65C52 3.77 48.82 4.06 44.54 4.35C40.45 4.62 34.47 4.9 31.27 4.97C28.06 5.04 22.95 5.09 19.91 5.08C16.86 5.07 13.65 5.12 12.77 5.19C11.88 5.25 11.06 5.37 10.93 5.45C10.76 5.54 10.6 8.53 10.38 15.53C10.2 21 9.96 28.58 9.83 32.37C9.71 36.17 9.53 39.39 9.43 39.53C9.32 39.69 9.34 39.82 9.5 39.89C9.64 39.94 20.38 39.96 33.38 39.94L57 39.88C57.09 33.43 57.2 31.47 57.31 31.36C57.44 31.23 57.66 31.3 57.96 31.59C58.21 31.82 58.62 32.12 58.86 32.25C59.11 32.37 59.45 32.48 59.62 32.48C59.88 32.48 59.92 31.78 59.92 27.4C59.92 23.03 59.88 22.33 59.62 22.33C59.45 22.33 59.11 22.43 58.86 22.55C58.62 22.68 58.14 23.05 57.81 23.39C57.48 23.72 57.11 23.95 57 23.89C56.89 23.83 56.74 21.83 56.64 19.05C56.55 16.44 56.4 13.35 56.3 12.18C56.2 11.01 56.11 8.81 56.11 7.31C56.11 5.42 56.03 4.46 55.85 4.22C55.68 3.98 55.12 3.79 54.19 3.66C53.41 3.55 52.63 3.46 52.44 3.45C52.26 3.45 52.08 3.54 52.04 3.65ZM7.76 3.86C7.69 3.97 8.12 4.51 8.7 5.06C9.28 5.61 9.82 6.02 9.9 5.97C9.99 5.93 10.01 5.77 9.96 5.63C9.91 5.49 9.42 4.99 8.87 4.51C8.32 4.04 7.82 3.74 7.76 3.86ZM7.64 5.94C7.65 6.41 7.73 6.94 7.83 7.1C7.94 7.27 7.94 7.5 7.85 7.61C7.76 7.72 7.65 8.59 7.62 9.54C7.58 10.63 7.64 11.43 7.8 11.72C7.99 12.09 7.99 12.21 7.77 12.33C7.63 12.41 7.45 12.71 7.39 12.99C7.32 13.27 7.38 13.71 7.51 13.97C7.69 14.34 7.69 14.47 7.48 14.58C7.3 14.67 7.13 15.72 6.94 17.86C6.79 19.59 6.66 22.01 6.66 23.24L6.65 25.47L9.15 27.57C9.23 25.71 9.16 25.17 9 25.01C8.8 24.8 8.81 24.75 9.1 24.75C9.42 24.76 9.45 24.5 9.45 21.97L9.44 19.18C8.59 18.64 8.07 18.25 7.74 17.96C7.17 17.46 7.19 17.47 8.24 18.05L9.35 18.67C9.58 17.49 9.65 16.9 9.65 16.59C9.65 16.17 9.46 15.9 8.85 15.48C8.41 15.17 8.05 14.85 8.05 14.77C8.04 14.68 8.11 14.61 8.19 14.61C8.28 14.6 8.59 14.79 8.9 15.01C9.2 15.24 9.5 15.43 9.55 15.43C9.61 15.43 9.65 15.01 9.65 14.51C9.65 13.7 9.57 13.54 8.95 13.09C8.56 12.81 8.29 12.49 8.34 12.38C8.4 12.26 8.68 12.35 9 12.59C9.3 12.82 9.62 13 9.7 13C9.78 12.99 9.85 12.74 9.85 12.43C9.86 12 9.69 11.78 9.13 11.47C8.73 11.24 8.26 10.89 8.07 10.69C7.76 10.34 7.77 10.33 8.14 10.48C8.36 10.56 8.84 10.8 9.2 11L9.85 11.37C9.87 9.07 9.85 9.01 9.05 8.42C8.6 8.09 8.23 7.75 8.24 7.66C8.24 7.58 8.31 7.51 8.39 7.52C8.48 7.52 8.84 7.75 9.2 8.02L9.85 8.52C9.97 7.31 9.87 6.78 9.67 6.44C9.5 6.13 9.26 5.89 9.15 5.89C9.04 5.9 8.77 5.71 8.55 5.48C8.32 5.25 8.03 5.06 7.89 5.07C7.73 5.07 7.64 5.38 7.64 5.94Z" />
		<path id="Path 2" class="shp2" d="M11.86 21.21L11.86 32.88L19.3 32.88C19.3 29.95 19.24 29.63 19 29.63C18.84 29.63 18.7 29.5 18.7 29.33C18.7 29.16 18.84 29.02 19 29.02C19.27 29.02 19.3 27.81 19.3 19.28L19.3 9.54L11.86 9.54L11.86 21.21ZM22.94 12.36L22.92 15.22C23.94 15.53 24.52 15.92 24.88 16.28C25.25 16.66 25.67 17.39 25.84 17.96C26.03 18.61 26.14 19.8 26.14 21.21C26.14 22.62 26.03 23.82 25.84 24.46C25.67 25.03 25.25 25.76 24.88 26.14C24.52 26.5 23.94 26.89 23.58 27L22.92 27.2L22.92 32.88C24.71 32.69 25.73 32.5 26.34 32.34C26.95 32.17 27.94 31.8 28.54 31.5C29.15 31.2 30.1 30.5 30.67 29.94C31.24 29.38 31.96 28.42 32.27 27.81C32.57 27.19 32.99 26.01 33.2 25.17C33.47 24.1 33.58 22.93 33.58 21.21C33.58 19.41 33.48 18.35 33.17 17.15C32.94 16.26 32.51 15.07 32.21 14.51C31.91 13.95 31.21 13.04 30.65 12.48C30.1 11.92 29.15 11.22 28.54 10.92C27.94 10.62 26.9 10.24 26.24 10.07C25.58 9.91 24.57 9.71 24 9.64L22.97 9.5L22.94 12.36Z" />
		<path id="Path 3" class="shp3" d="M37.4 21.21L37.4 32.48L44.44 32.48L44.44 9.95L37.4 9.95L37.4 21.21Z" />
		<path id="Path 4" class="shp0" d="M7.74 20.79C8.18 21.2 8.61 21.52 8.7 21.52C8.78 21.52 8.82 21.42 8.8 21.3C8.77 21.17 8.34 20.85 7.84 20.57L6.94 20.06L7.74 20.79Z" />
		<path id="Path 5" class="shp1" d="M61.81 21.97C61.72 22.14 61.69 22.72 61.74 23.26C61.83 24.24 61.84 24.25 62.63 24.38C63.17 24.47 63.62 24.73 63.99 25.15C64.5 25.72 64.54 25.92 64.54 27.4C64.54 28.88 64.5 29.08 63.99 29.65C63.62 30.08 63.17 30.33 62.63 30.42L61.83 30.55L61.83 32.98C63.39 32.95 64.29 32.79 64.85 32.62C65.52 32.4 66.12 32 66.67 31.42C67.12 30.94 67.61 30.18 67.77 29.74C67.92 29.29 68.04 28.24 68.04 27.4C68.04 26.56 67.92 25.51 67.77 25.07C67.61 24.62 67.12 23.86 66.67 23.38C66.15 22.83 65.52 22.4 64.95 22.22C64.45 22.07 63.58 21.88 63.01 21.8C62.2 21.7 61.94 21.73 61.81 21.97ZM75.66 22C75.58 22.15 75.56 22.72 75.61 23.27C75.69 24.14 75.76 24.26 76.21 24.32C76.48 24.36 76.88 24.54 77.09 24.73C77.3 24.92 77.59 25.36 77.74 25.73L78.02 26.39C80.57 26.3 80.94 26.21 80.99 25.98C81.03 25.81 80.95 25.26 80.82 24.76C80.67 24.18 80.33 23.6 79.85 23.14C79.43 22.73 78.65 22.28 78.01 22.07C77.41 21.87 76.66 21.71 76.35 21.71C76.05 21.72 75.73 21.84 75.66 22ZM97.04 21.97C96.99 22.11 96.97 24.65 96.99 27.61L97.02 32.98L100.23 32.98L100.23 21.82C97.54 21.72 97.1 21.77 97.04 21.97ZM102.34 21.87C102.14 21.93 102.08 22.28 102.11 23.1C102.16 24.16 102.22 24.31 102.91 24.89L103.65 25.53L103.65 29.27C102.21 30.51 102.16 30.62 102.15 31.71C102.15 32.48 102.23 32.91 102.4 32.95C102.53 32.99 103.1 32.92 103.66 32.8C104.22 32.68 105.01 32.33 105.42 32.02C105.83 31.71 106.37 31.07 106.62 30.6C107.01 29.85 107.07 29.43 107.07 27.4C107.07 25.37 107.01 24.95 106.62 24.2C106.37 23.73 105.87 23.12 105.51 22.86C105.15 22.59 104.54 22.28 104.16 22.17C103.77 22.05 103.26 21.92 103.03 21.87C102.8 21.82 102.48 21.82 102.34 21.87ZM114.89 21.97C114.8 22.14 114.77 22.72 114.82 23.26C114.91 24.24 114.92 24.25 115.72 24.38C116.26 24.47 116.7 24.73 117.07 25.15C117.58 25.72 117.63 25.92 117.63 27.4C117.63 28.88 117.58 29.08 117.07 29.65C116.7 30.08 116.26 30.33 115.72 30.42L114.91 30.55L114.91 32.98C116.47 32.95 117.38 32.79 117.93 32.62C118.6 32.4 119.21 32 119.75 31.42C120.2 30.94 120.7 30.18 120.85 29.74C121 29.29 121.13 28.24 121.13 27.4C121.13 26.56 121 25.51 120.85 25.07C120.7 24.62 120.2 23.86 119.75 23.38C119.24 22.83 118.6 22.4 118.03 22.22C117.53 22.07 116.66 21.88 116.09 21.8C115.28 21.7 115.02 21.73 114.89 21.97ZM123.99 21.96C123.94 22.11 123.91 24.65 123.93 27.61L123.96 32.98L126.58 32.98L126.58 21.82C124.42 21.72 124.05 21.77 123.99 21.96ZM128.79 21.85C128.69 21.93 128.63 22.43 128.65 22.97C128.67 23.55 128.79 23.98 128.94 24.02C129.08 24.06 129.46 24.18 129.79 24.28C130.29 24.43 130.4 24.58 130.45 25.17C130.48 25.56 130.39 25.99 130.25 26.14C130.11 26.28 129.72 26.41 129.39 26.44C128.79 26.49 128.79 26.5 128.74 27.81C128.7 29.02 128.78 29.29 129.65 31.05L130.6 32.98C133.81 33.08 134.12 33.03 134.12 32.78C134.12 32.61 133.66 31.56 133.11 30.45L132.1 28.42C133.24 27.39 133.69 26.8 133.84 26.44C133.99 26.07 134.12 25.48 134.12 25.12C134.12 24.75 133.91 24.05 133.66 23.55C133.34 22.9 132.96 22.52 132.31 22.18C131.65 21.84 131.07 21.71 130.18 21.71C129.5 21.72 128.88 21.78 128.79 21.85ZM86.79 22.07C86.74 22.16 85.87 24.49 84.87 27.25C83.86 30.01 83.04 32.41 83.04 32.58C83.04 32.83 83.34 32.87 84.7 32.83L86.36 32.78C88.73 24.76 89.38 22.31 89.35 22.17C89.3 22.01 88.87 21.92 88.08 21.92C87.42 21.92 86.84 21.99 86.79 22.07ZM139.87 22.07C139.82 22.16 138.95 24.49 137.95 27.25C136.95 30.01 136.13 32.41 136.13 32.58C136.13 32.83 136.42 32.87 137.78 32.83L139.44 32.78C141.81 24.76 142.47 22.31 142.43 22.17C142.38 22.01 141.95 21.92 141.16 21.92C140.5 21.92 139.92 21.99 139.87 22.07ZM72.86 22.37C72.65 22.49 72.14 22.91 71.72 23.32C71.23 23.8 70.86 24.4 70.67 25.07C70.5 25.63 70.37 26.68 70.37 27.4C70.37 28.13 70.5 29.18 70.67 29.74C70.86 30.4 71.23 31.01 71.72 31.49C72.14 31.89 72.67 32.31 72.89 32.42C73.11 32.53 73.4 32.59 73.54 32.55C73.73 32.49 73.79 31.3 73.78 27.42C73.78 23.37 73.72 22.35 73.5 22.27C73.35 22.21 73.06 22.26 72.86 22.37ZM111.66 22.79C111.33 23.04 110.81 23.57 110.51 23.96C110.21 24.34 109.88 24.98 109.78 25.37C109.67 25.76 109.59 26.68 109.59 27.4C109.59 28.13 109.67 29.04 109.78 29.43C109.88 29.82 110.18 30.46 110.44 30.85C110.7 31.24 111.22 31.77 111.6 32.02C111.99 32.28 112.46 32.48 112.65 32.48C112.98 32.48 113 32.1 113 27.4C113 22.63 112.98 22.33 112.64 22.33C112.44 22.33 112 22.53 111.66 22.79ZM90.31 25.78C89.96 27.01 89.68 28.12 89.68 28.26C89.68 28.4 89.56 28.79 89.4 29.13C89.24 29.46 89.05 30.08 88.99 30.5L88.87 31.26C90.41 31.26 90.51 31.33 90.84 32.02L91.19 32.78C94.31 32.88 94.5 32.84 94.5 32.53C94.5 32.33 93.84 30.23 93.04 27.86C91.97 24.7 91.5 23.54 91.27 23.54C91.04 23.54 90.78 24.16 90.31 25.78ZM143.4 25.78C143.05 27.01 142.76 28.12 142.77 28.26C142.77 28.4 142.64 28.79 142.48 29.13C142.32 29.46 142.14 30.08 142.07 30.5L141.96 31.26C143.49 31.26 143.6 31.33 143.92 32.02L144.27 32.78C147.39 32.88 147.59 32.84 147.58 32.53C147.58 32.33 146.92 30.23 146.12 27.86C145.05 24.7 144.58 23.54 144.35 23.54C144.12 23.54 143.86 24.16 143.4 25.78ZM6.58 26.37C6.54 26.47 6.43 26.95 6.33 27.43C6.23 28.01 6.25 28.52 6.41 28.92C6.54 29.26 7.02 29.79 7.49 30.1C7.96 30.41 8.56 30.82 8.81 31.01L9.28 31.36L9.15 27.98C7.23 26.58 6.63 26.26 6.58 26.37Z" />
		<path id="Path 6" class="shp3" d="M48.06 29.63L48.06 32.48L55.7 32.48L55.7 26.79L48.06 26.79L48.06 29.63Z" />
		<path id="Path 7" class="shp1" d="M77.91 28.76C77.84 28.96 77.68 29.35 77.54 29.63C77.41 29.91 77.03 30.22 76.7 30.32C76.37 30.42 75.99 30.53 75.85 30.57C75.68 30.63 75.62 31.02 75.65 31.82C75.7 32.95 75.72 32.98 76.31 33.04C76.64 33.08 77.39 32.96 77.97 32.79C78.55 32.62 79.34 32.18 79.74 31.82C80.13 31.45 80.59 30.79 80.76 30.34C80.93 29.9 81.03 29.3 81 29.02C80.93 28.54 80.86 28.51 79.48 28.46C78.23 28.41 78.01 28.45 77.91 28.76ZM6.54 30.15C6.46 30.21 6.46 30.69 6.54 31.21C6.63 31.74 6.82 32.38 6.97 32.63C7.12 32.88 7.31 33.04 7.39 32.99C7.47 32.94 7.86 33.21 8.24 33.6C8.63 33.99 9.02 34.31 9.1 34.31C9.18 34.3 9.27 33.77 9.29 33.12C9.33 31.98 9.31 31.93 8.64 31.46C8.26 31.2 7.66 30.77 7.32 30.51C6.98 30.25 6.63 30.09 6.54 30.15ZM6.84 34.71C6.84 36.09 6.86 36.15 7.59 36.83C8.01 37.22 8.3 37.58 8.24 37.64C8.19 37.71 7.89 37.57 7.59 37.35C7.07 36.97 7.03 36.96 6.91 37.3C6.84 37.49 6.85 37.97 6.93 38.36C7.02 38.75 7.21 39.28 7.36 39.53C7.57 39.86 7.83 39.99 8.34 39.99L9.05 39.99C8.99 38.49 9.04 37.42 9.12 36.64C9.2 35.85 9.19 35.12 9.1 35.01C9.02 34.89 8.54 34.46 8.04 34.04C7.55 33.62 7.07 33.28 6.99 33.28C6.9 33.29 6.84 33.93 6.84 34.71Z" />
		<path id="Path 8" class="shp0" d="M7.05 36.73C7.04 36.85 7.29 37.12 7.59 37.35C7.89 37.57 8.19 37.71 8.24 37.66C8.3 37.6 8.21 37.41 8.04 37.23C7.88 37.04 7.59 36.81 7.4 36.71C7.18 36.59 7.06 36.6 7.05 36.73Z" />
		<path id="Path 9" class="shp4" d="M33.28 42.51C33.01 42.79 32.79 43.15 32.78 43.32C32.78 43.5 32.44 43.81 32.02 44.02C31.61 44.23 29.77 44.97 27.95 45.66C26.12 46.36 23.32 47.47 21.72 48.14C20.11 48.81 18.44 49.55 18 49.78C17.52 50.02 16.15 50.35 14.68 50.57C13.3 50.78 11.11 51.02 9.81 51.1C7.74 51.23 7.4 51.31 6.99 51.71C6.64 52.07 6.53 52.43 6.5 53.34C6.47 53.97 6.4 55.27 6.33 56.22C6.23 57.44 6.09 58.07 5.84 58.35C5.64 58.58 5.33 59.22 5.15 59.77C4.94 60.42 4.82 61.46 4.82 62.62C4.83 63.62 4.93 64.81 5.05 65.25C5.19 65.76 5.74 66.58 6.51 67.44C7.68 68.74 7.82 68.83 9.25 69.2C10.08 69.42 11.48 69.7 12.37 69.82C13.25 69.95 15.15 70.09 16.59 70.15C18.31 70.21 19.25 70.33 19.35 70.49C19.43 70.63 19.65 71.19 19.83 71.75C20.01 72.31 20.46 73.18 20.81 73.68C21.17 74.18 21.86 74.92 22.34 75.32C22.83 75.72 23.54 76.22 23.93 76.41C24.31 76.61 25.31 76.95 26.14 77.16C27.03 77.38 27.94 77.49 28.35 77.42C28.74 77.35 29.64 77.11 30.36 76.88C31.08 76.65 32.03 76.21 32.47 75.91C32.92 75.6 33.66 74.93 34.13 74.41C34.6 73.9 35.19 73.07 35.44 72.57L35.89 71.67C38.07 71.83 38.81 71.8 38.94 71.71C39.11 71.59 39.12 71.25 38.97 70.43C38.84 69.65 38.85 68.91 39.01 68C39.14 67.27 39.45 66.22 39.71 65.66C39.97 65.1 40.64 64.12 41.2 63.48C41.76 62.84 42.13 62.31 42.02 62.31C41.91 62.31 41.45 62.7 40.99 63.17C40.53 63.65 39.83 64.72 39.44 65.56C38.84 66.85 38.71 67.37 38.62 68.97L38.51 70.85C35.39 70.68 34.26 70.58 33.98 70.53C33.54 70.44 33.43 70.54 33.08 71.38C32.85 71.91 32.27 72.69 31.76 73.16C31.18 73.68 30.4 74.12 29.65 74.37C28.81 74.64 28.09 74.72 27.25 74.66C26.41 74.59 25.7 74.37 24.93 73.95C24.26 73.58 23.53 72.94 23.08 72.34C22.67 71.79 22.22 70.93 22.09 70.43C21.95 69.93 21.84 69.11 21.85 68.6C21.86 68.1 22.01 67.23 22.19 66.68C22.36 66.12 22.83 65.27 23.22 64.8C23.61 64.32 24.04 63.94 24.18 63.94C24.36 63.94 24.41 63.52 24.37 62.36C24.33 61.45 24.41 60.53 24.55 60.18C24.69 59.85 25.01 59.27 25.27 58.91C25.64 58.4 25.74 57.99 25.74 57.03C25.74 56.36 25.88 55.38 26.06 54.85C26.31 54.08 26.32 53.81 26.13 53.48C25.94 53.15 25.96 52.96 26.27 52.41C26.63 51.77 26.68 51.75 28 51.75C28.75 51.76 29.36 51.71 29.36 51.66C29.36 51.6 29.22 51.35 29.05 51.1C28.84 50.78 28.76 50.24 28.8 49.32L28.85 48C30.72 46.99 31.9 46.5 32.67 46.26C33.45 46.02 34.99 45.66 36.09 45.46C37.2 45.26 39.23 45 40.62 44.88C42 44.77 44.46 44.62 46.1 44.56L49.06 44.45C49.06 45.42 49.11 45.45 49.61 45.29C49.92 45.19 50.71 44.88 51.37 44.6C52.53 44.1 52.58 44.05 52.68 43.24C52.77 42.48 52.74 42.4 52.28 42.28C52 42.21 49.56 42.21 46.85 42.28C44.14 42.36 40.66 42.48 39.11 42.56C36.7 42.68 36.18 42.65 35.54 42.36C35.12 42.17 34.56 42.01 34.27 42.01C33.99 42.01 33.54 42.24 33.28 42.51Z" />
		<path id="Path 10" class="shp5" d="M52.89 42.44C52.73 42.59 52.62 42.98 52.64 43.32C52.67 43.66 52.58 44.06 52.44 44.2C52.25 44.4 52.4 44.45 53.19 44.45C53.74 44.45 54.96 44.55 55.9 44.68C56.95 44.82 57.67 45.01 57.76 45.19C57.86 45.37 58.28 45.46 59.07 45.46C59.7 45.45 60.45 45.32 60.72 45.16C61.02 44.99 61.78 44.87 62.53 44.87C63.44 44.86 63.78 44.8 63.64 44.65C63.53 44.53 62.67 44.21 61.73 43.93C60.79 43.65 59.95 43.28 59.87 43.12C59.76 42.91 59.32 42.82 58.26 42.81C57.46 42.81 56.35 42.72 55.8 42.61C55.24 42.5 54.43 42.36 53.99 42.3C53.47 42.22 53.08 42.28 52.89 42.44Z" />
		<path id="Path 11" class="shp6" d="M63.34 42.63C61.62 42.72 60.13 42.9 60.02 43.01C59.91 43.13 59.86 43.27 59.92 43.32C59.97 43.38 60.7 43.62 61.53 43.85C62.36 44.09 63.22 44.38 63.44 44.5C63.66 44.62 64.16 44.75 64.54 44.78C64.93 44.82 65.43 44.84 65.65 44.85C65.87 44.85 66.69 44.85 67.46 44.86C68.56 44.87 68.92 44.94 69.1 45.22C69.29 45.5 69.44 45.53 69.9 45.36C70.38 45.19 70.48 45.02 70.53 44.4C70.57 43.8 70.67 43.62 71.03 43.54C71.28 43.49 71.73 43.44 72.03 43.44C72.34 43.44 72.93 43.63 73.34 43.87C74.03 44.26 74.29 44.29 76.26 44.17C77.99 44.07 78.42 43.98 78.42 43.74C78.42 43.57 78.35 43.4 78.27 43.35C78.18 43.3 77.48 43.16 76.71 43.03C75.93 42.9 74.49 42.76 73.49 42.72C72.5 42.68 70.51 42.6 69.07 42.55C67.63 42.5 65.05 42.53 63.34 42.63Z" />
		<path id="Path 12" fill-rule="evenodd" class="shp1" d="M71.93 43.46C72.29 43.45 72.93 43.63 73.34 43.87C74.03 44.26 74.29 44.29 76.26 44.17C77.45 44.1 78.42 43.98 78.42 43.89C78.42 43.81 81.34 43.75 84.9 43.77C88.47 43.79 92.22 43.9 93.25 44.03C94.27 44.15 96.03 44.43 97.17 44.65C98.3 44.87 99.82 45.24 100.54 45.46C101.26 45.68 103.2 46.56 104.86 47.41C106.52 48.27 109.23 49.74 110.89 50.69C112.55 51.64 114.52 52.82 116.62 54.19L120.09 54.2C122 54.2 124.78 54.33 126.27 54.49C127.77 54.65 130.03 54.97 131.3 55.19C132.57 55.42 134.52 55.78 135.62 56C136.73 56.22 138.36 56.58 139.24 56.8C140.13 57.01 141.76 57.49 142.86 57.87C143.97 58.24 145.23 58.82 145.66 59.16C146.09 59.5 146.63 60.03 146.86 60.35C147.24 60.85 147.28 61.18 147.26 63.19C147.25 64.44 147.2 66.67 147.16 68.15C147.09 70.72 147.06 70.87 146.53 71.55C146.08 72.13 145.77 72.3 144.82 72.48C144.19 72.6 142.9 72.74 140.25 72.85L139.59 74.13C139.23 74.83 138.46 75.88 137.88 76.47C137.3 77.06 136.27 77.8 135.57 78.14C134.88 78.48 133.89 78.86 133.36 78.99C132.84 79.11 131.91 79.17 131.3 79.11C130.69 79.05 129.56 78.74 128.79 78.42C127.78 78.01 127.02 77.5 126.1 76.63C125.32 75.88 124.59 74.95 124.24 74.24C123.84 73.42 123.57 73.1 123.36 73.17C123.19 73.23 112.09 73.27 98.68 73.27C74.39 73.27 74.3 73.27 73.99 72.86C73.7 72.46 73.68 72.47 73.42 73.22C73.27 73.64 72.89 74.39 72.58 74.9C72.27 75.4 71.6 76.2 71.1 76.67C70.59 77.15 69.47 77.87 68.62 78.28C67.55 78.79 66.68 79.06 65.85 79.12C64.98 79.19 64.24 79.1 63.19 78.78C62.33 78.53 61.21 77.99 60.47 77.47C59.78 76.99 58.88 76.14 58.46 75.59C58.04 75.04 57.46 73.94 57.15 73.14C56.68 71.89 56.55 71.71 56.25 71.87C56.03 71.98 55.68 71.98 55.35 71.87C55.04 71.76 53.93 71.63 52.88 71.57C51.83 71.5 50.2 71.36 49.26 71.25C48.32 71.14 47.03 70.91 46.4 70.74C45.76 70.57 45.01 70.27 44.73 70.08C44.44 69.88 44.17 69.56 44.12 69.37C44.07 69.17 43.65 68.68 42.33 67.56L42.25 64.79C42.19 62.91 42.25 61.74 42.42 61.2C42.56 60.75 42.88 60.16 43.14 59.88C43.52 59.46 43.61 59.07 43.7 57.64C43.76 56.69 43.87 55.6 43.94 55.21C44.03 54.71 43.99 54.46 43.8 54.37C43.59 54.26 43.64 54.07 44.52 52.77L46.14 52.77C47.03 52.78 48.25 52.68 48.86 52.56C49.47 52.44 50.28 52.31 50.67 52.27C51.06 52.23 51.98 52.14 52.73 52.08C53.48 52.01 54.09 51.87 54.09 51.76C54.09 51.65 54.2 51.59 54.34 51.63C54.48 51.67 55.13 51.43 55.8 51.09C56.46 50.76 58.54 49.86 60.42 49.09C62.3 48.32 64.11 47.56 64.44 47.42C64.78 47.27 65.54 46.99 66.15 46.79C66.96 46.53 67.31 46.5 67.46 46.67C67.57 46.79 67.77 46.89 67.91 46.89C68.05 46.89 68.16 46.7 68.16 46.48C68.16 46.22 68.39 45.98 68.82 45.79C69.18 45.64 69.72 45.41 70.02 45.28C70.49 45.09 70.57 44.95 70.53 44.36C70.49 43.81 70.56 43.65 70.88 43.58C71.1 43.52 71.57 43.47 71.93 43.46ZM89.97 46.68C90.05 46.96 90.24 47.49 90.4 47.85C90.55 48.21 90.82 48.51 90.99 48.51C91.15 48.51 92.49 49.21 93.95 50.06C95.42 50.92 97.07 51.92 97.62 52.3L98.63 52.98C104.08 52.99 106.05 53.06 106.53 53.14C107.25 53.25 107.43 53.22 107.59 52.92C107.69 52.73 108.02 52.45 108.33 52.3L108.88 52.02C107.79 51.22 106.61 50.46 105.56 49.81C104.51 49.17 103.11 48.39 102.45 48.09C101.78 47.78 100.52 47.35 99.63 47.12C98.75 46.9 96.94 46.53 95.61 46.3C94.28 46.08 92.49 45.85 91.63 45.8C90.55 45.73 90.03 45.77 89.95 45.94C89.88 46.07 89.89 46.4 89.97 46.68ZM73.69 46.63C73.12 46.75 72.87 46.92 72.83 47.2C72.79 47.42 72.94 48.05 73.16 48.61C73.53 49.58 73.67 49.7 75.94 51.07L78.32 52.51C85.59 52.63 87.74 52.6 87.79 52.52C87.83 52.43 87.77 51.61 87.65 50.69C87.53 49.77 87.32 48.86 87.2 48.67C87.07 48.47 85.92 47.82 84.65 47.21C82.6 46.22 82.16 46.08 80.73 45.99C79.85 45.94 78.08 46.02 76.81 46.18C75.54 46.33 74.14 46.54 73.69 46.63ZM66.14 49.88C66.02 50.19 65.97 50.8 66.03 51.25C66.1 51.7 66.36 52.34 66.62 52.67C66.89 53.01 67.32 53.4 67.58 53.54C67.94 53.74 68.2 53.75 68.62 53.6C69.03 53.43 69.17 53.25 69.17 52.82C69.17 52.52 69.35 51.92 69.57 51.5C69.8 51.08 69.93 50.54 69.87 50.29C69.81 50.03 69.74 49.82 69.72 49.82C69.69 49.81 69.42 49.65 69.12 49.46C68.81 49.27 68.36 48.98 68.1 48.82C67.68 48.55 67.57 48.56 67 48.92C66.64 49.14 66.26 49.57 66.14 49.88ZM129.64 64.65C129.56 64.71 129.49 64.93 129.49 65.15C129.49 65.49 129.56 65.53 129.89 65.36C130.11 65.24 130.48 65.15 130.7 65.15C131.06 65.15 131.1 65.29 131.1 66.47C131.1 67.33 131.01 67.84 130.85 67.91C130.71 67.98 130.29 67.73 129.92 67.36L129.24 66.68C129.46 69.42 129.42 69.82 129.16 70.23C128.98 70.51 128.68 70.85 128.51 70.99C128.23 71.21 128.27 71.25 128.84 71.25C129.2 71.24 129.49 71.31 129.49 71.39C129.49 71.48 129.04 72 128.49 72.56L127.49 73.58C126.85 72.07 126.54 71.65 126.37 71.65C126.21 71.65 126.07 71.76 126.08 71.9C126.08 72.04 126.25 72.52 126.45 72.97C126.66 73.41 127.17 74.14 127.6 74.58C128.03 75.02 128.88 75.61 129.49 75.89C130.31 76.27 130.93 76.4 131.9 76.39C132.82 76.39 133.51 76.25 134.22 75.94C134.77 75.69 135.57 75.15 135.99 74.73C136.42 74.32 137 73.53 137.3 72.97C137.74 72.12 137.83 71.69 137.83 70.33C137.83 68.97 137.74 68.54 137.3 67.69C137.01 67.13 136.38 66.32 135.9 65.88C135.42 65.44 134.66 64.92 134.22 64.73C133.77 64.55 133 64.35 132.51 64.29C132.01 64.24 131.19 64.28 130.7 64.38C130.2 64.48 129.72 64.6 129.64 64.65ZM61.48 73.04L60.94 73.58C60.54 72.7 60.26 72.45 60.07 72.45C59.88 72.46 59.71 72.53 59.71 72.61C59.71 72.7 60.01 73.22 60.38 73.78C60.81 74.42 61.46 75.04 62.15 75.45C62.75 75.82 63.73 76.21 64.34 76.33C65.13 76.49 65.72 76.49 66.4 76.33C66.93 76.21 67.61 75.99 67.91 75.83C68.22 75.68 68.78 75.29 69.16 74.97C69.54 74.65 70.1 73.98 70.42 73.48C70.73 72.97 70.98 72.49 70.98 72.41C70.98 72.33 70.82 72.25 70.63 72.25C70.43 72.25 70.16 72.48 70.02 72.76C69.89 73.04 69.66 73.27 69.52 73.28C69.38 73.28 69.04 73.05 68.77 72.77C68.28 72.28 68.2 72.26 65.65 72.3C64.21 72.32 62.81 72.37 62.53 72.41C62.26 72.46 61.79 72.74 61.48 73.04Z" />
		<path id="Path 13" class="shp6" d="M51.95 44.55C52 44.66 52.13 45.14 52.26 45.62C52.45 46.37 52.54 46.47 52.93 46.37C53.18 46.32 54.02 46.14 54.79 45.98C55.57 45.82 56.54 45.64 56.95 45.58C57.38 45.52 57.72 45.34 57.75 45.18C57.77 44.97 57.29 44.85 55.78 44.68C54.69 44.56 53.36 44.44 52.83 44.41C52.26 44.37 51.91 44.43 51.95 44.55Z" />
		<path id="Path 14" class="shp5" d="M50.77 44.86C50.33 45.06 49.81 45.24 49.61 45.25C49.31 45.26 49.28 45.4 49.39 46.33C49.45 46.91 49.54 47.42 49.59 47.44C49.63 47.47 50.3 47.24 51.07 46.94C52.38 46.42 52.47 46.34 52.35 45.87C52.28 45.59 52.14 45.16 52.05 44.91C51.95 44.66 51.81 44.46 51.73 44.47C51.64 44.47 51.21 44.65 50.77 44.86Z" />
		<path id="Path 15" class="shp4" d="M62.49 44.83C61.64 44.9 60.83 45.07 60.68 45.21C60.47 45.41 60.48 45.47 60.72 45.55C60.89 45.61 61.43 45.75 61.93 45.87C62.43 45.99 63.36 46.33 63.99 46.64C65.1 47.17 65.18 47.18 65.97 46.89C66.43 46.72 66.85 46.49 66.91 46.38C66.97 46.27 66.82 46.02 66.59 45.82C66.35 45.63 66.15 45.33 66.15 45.16C66.15 44.96 65.97 44.87 65.65 44.88C65.37 44.9 64.9 44.86 64.59 44.81C64.29 44.75 63.34 44.76 62.49 44.83Z" />
		<path id="Path 16" class="shp6" d="M48.16 45.77C47.83 45.93 46.02 46.66 44.14 47.41C42.26 48.15 39.77 49.19 38.61 49.73C36.8 50.56 36.15 50.74 34.08 51.02C32.75 51.21 31.28 51.35 30.81 51.35C30.33 51.35 29.91 51.46 29.84 51.61C29.77 51.74 29.84 51.97 29.99 52.1C30.14 52.24 30.89 52.45 31.67 52.57C32.44 52.69 35.56 52.87 38.61 52.97C41.65 53.06 44.23 53.07 44.34 52.98C44.45 52.9 45.58 52.78 46.85 52.72C48.12 52.66 49.39 52.52 49.66 52.4C50.15 52.19 50.16 52.19 49.72 52.18C49.47 52.17 49.08 51.91 48.85 51.61C48.51 51.15 48.45 50.81 48.5 49.73C48.55 48.59 48.62 48.38 49.01 48.21C49.26 48.09 49.49 47.91 49.53 47.8C49.56 47.69 49.53 47.12 49.46 46.53C49.37 45.79 49.25 45.47 49.05 45.48C48.89 45.49 48.49 45.62 48.16 45.77ZM82.72 45.87C82.79 45.98 82.73 46.08 82.59 46.08C82.45 46.08 83.29 46.54 84.45 47.1C85.61 47.66 86.7 48.14 86.86 48.16C87.1 48.2 87.15 48 87.1 47.19C87.06 46.54 86.91 46.08 86.7 45.92C86.48 45.75 85.69 45.66 84.48 45.66C83.28 45.67 82.64 45.74 82.72 45.87Z" />
		<path id="Path 17" class="shp4" d="M50.87 47.05C49.73 47.55 49.57 47.68 49.62 48.12C49.66 48.39 49.82 48.77 49.98 48.97C50.19 49.22 50.22 49.48 50.09 49.88C49.99 50.19 49.97 50.82 50.04 51.28C50.11 51.74 50.21 52.16 50.27 52.22C50.32 52.28 51.21 52.22 52.23 52.09C53.65 51.91 54.09 51.79 54.09 51.55C54.09 51.39 53.86 50.56 53.58 49.73C53.29 48.89 52.99 47.84 52.91 47.39C52.83 46.92 52.65 46.56 52.47 46.53C52.31 46.51 51.59 46.74 50.87 47.05Z" />
		<path id="Path 18" class="shp6" d="M71.08 47.23C70.07 47.49 69.92 47.58 70.17 47.79C70.34 47.93 71.09 48.38 71.83 48.78C72.58 49.19 73.23 49.46 73.27 49.37C73.32 49.29 73.19 48.72 72.99 48.1C72.78 47.49 72.54 46.97 72.45 46.96C72.36 46.94 71.74 47.07 71.08 47.23Z" />
		<path id="Path 19" class="shp4" d="M68.67 48.04C68.24 48.21 67.91 48.43 67.93 48.53C67.95 48.63 68.3 48.94 68.72 49.22C69.13 49.5 69.54 49.73 69.62 49.73C69.7 49.73 69.76 49.48 69.75 49.17C69.74 48.86 69.67 48.41 69.58 48.17C69.44 47.75 69.41 47.75 68.67 48.04Z" />
		<path id="Path 20" class="shp5" d="M69.64 48.36C69.72 48.72 69.78 49.27 69.77 49.58C69.77 49.89 69.88 50.13 70.02 50.12C70.16 50.12 70.39 50.26 70.53 50.43C70.74 50.69 70.69 50.76 70.22 50.86C69.9 50.92 69.77 51.03 69.91 51.11C70.04 51.19 70.22 51.82 70.31 52.51L70.48 53.77C69.39 53.52 68.89 53.51 68.67 53.59C68.33 53.71 68.4 53.77 69.07 53.96C69.51 54.09 72.13 54.28 74.9 54.4C77.66 54.51 81.81 54.63 84.11 54.65C88.18 54.7 88.28 54.69 88.23 54.29C88.17 53.9 87.98 53.89 81.54 53.79L74.91 53.69C73.93 51.01 73.68 50.12 73.72 49.98C73.76 49.84 73.68 49.66 73.54 49.58C73.4 49.5 73.2 49.42 73.09 49.4C72.98 49.38 72.21 48.98 71.38 48.52C70.55 48.06 69.79 47.69 69.69 47.69C69.59 47.7 69.57 47.99 69.64 48.36Z" />
		<path id="Path 21" class="shp6" d="M90.69 48.66C90.69 48.75 91.03 49.85 91.44 51.12C91.99 52.81 92.3 53.48 92.59 53.6C92.82 53.68 94.26 53.99 95.81 54.28C98.3 54.74 99.15 54.8 103.1 54.8L107.57 54.8C107.38 53.78 107.24 53.39 107.13 53.28C107.03 53.16 105.14 53.03 102.69 52.98L98.42 52.87C97.02 51.9 95.42 50.91 93.95 50.06C92.49 49.21 91.15 48.51 90.99 48.51C90.82 48.51 90.68 48.58 90.69 48.66Z" />
		<path id="Path 22" class="shp4" d="M73.75 50.07C73.69 50.16 73.93 51.01 74.28 51.96L74.91 53.69C87.64 53.78 88.07 53.76 88.07 53.43C88.06 53.24 88 52.99 87.92 52.87C87.83 52.75 85.87 52.64 83.04 52.6L78.32 52.52C75.36 50.69 74.35 50.1 74.18 50.03C74 49.96 73.81 49.98 73.75 50.07ZM69.6 51.45C69.48 51.62 69.32 52.15 69.25 52.62C69.12 53.46 69.13 53.48 69.75 53.58C70.21 53.66 70.37 53.61 70.37 53.38C70.38 53.21 70.33 52.64 70.28 52.11C70.22 51.58 70.09 51.15 70 51.15C69.9 51.15 69.72 51.29 69.6 51.45Z" />
		<path id="Path 23" class="shp5" d="M29.36 51.5C29.36 51.68 28.95 51.76 28 51.75C26.68 51.75 26.63 51.77 26.27 52.41C25.96 52.96 25.94 53.15 26.13 53.48C26.32 53.81 26.31 54.08 26.06 54.85C25.88 55.38 25.74 56.36 25.74 57.03C25.74 57.99 25.64 58.39 25.26 58.91C25 59.27 24.73 59.73 24.66 59.93C24.55 60.24 24.62 60.26 25.28 60.13C25.7 60.05 26.95 59.98 28.06 59.98C29.98 59.98 30.16 60.02 31.58 60.72C32.65 61.25 33.38 61.79 34.15 62.65C34.74 63.3 35.44 64.29 35.71 64.85C35.97 65.41 36.29 66.41 36.41 67.08C36.53 67.75 36.6 68.82 36.56 69.45C36.5 70.59 36.5 70.6 37.1 70.72C37.43 70.79 37.88 70.84 38.1 70.84C38.47 70.84 38.52 70.66 38.62 68.96C38.71 67.47 38.86 66.81 39.33 65.76C39.66 65.04 40.22 64.08 40.56 63.63C40.91 63.18 41.4 62.7 41.66 62.56C41.96 62.4 42.22 61.96 42.39 61.34C42.53 60.82 42.86 60.16 43.12 59.88C43.52 59.45 43.61 59.09 43.7 57.64C43.76 56.69 43.87 55.6 43.94 55.21C44.03 54.71 43.99 54.46 43.8 54.36C43.58 54.25 43.6 54.13 43.88 53.7L44.24 53.18C41.35 53.03 38.8 52.94 36.7 52.88C34.59 52.82 32.29 52.68 31.57 52.56C30.53 52.4 30.17 52.24 29.81 51.8C29.56 51.5 29.36 51.36 29.36 51.5ZM92.54 54.18L92.69 54.8C95.42 54.78 96.39 54.7 96.6 54.62C96.86 54.51 96.37 54.35 94.99 54.11C93.89 53.91 92.86 53.71 92.69 53.66C92.44 53.58 92.41 53.67 92.54 54.18Z" />
		<path id="Path 24" class="shp6" d="M25.35 60.14C24.87 60.27 24.45 60.5 24.43 60.63C24.4 60.82 24.6 60.81 25.21 60.58C25.67 60.41 26.49 60.22 27.04 60.15C27.6 60.09 28.59 60.14 29.26 60.28C29.92 60.42 30.96 60.77 31.57 61.06C32.18 61.35 33.14 62.05 33.71 62.61C34.35 63.24 35 64.17 35.42 65.05C36.05 66.39 36.09 66.6 36.09 68.65C36.09 69.97 36.17 70.84 36.29 70.84C36.4 70.84 36.52 70.22 36.55 69.47C36.58 68.71 36.52 67.59 36.4 66.98C36.28 66.37 35.97 65.41 35.71 64.85C35.44 64.29 34.74 63.3 34.15 62.65C33.38 61.79 32.65 61.25 31.58 60.72C30.21 60.04 29.92 59.97 28.16 59.94C27.1 59.91 25.84 60 25.35 60.14Z" />
		<path id="Path 25" class="shp5" d="M25.74 60.41C25.13 60.58 24.56 60.75 24.48 60.8C24.4 60.85 24.33 61.48 24.33 62.21C24.33 62.94 24.35 63.53 24.38 63.53C24.41 63.54 24.88 63.34 25.44 63.1C26.12 62.81 26.86 62.67 27.75 62.67C28.71 62.66 29.35 62.8 30.16 63.17C30.77 63.44 31.54 63.9 31.87 64.18C32.2 64.46 32.74 65.18 33.08 65.79C33.62 66.77 33.68 67.06 33.68 68.66C33.68 70.28 33.72 70.46 34.08 70.55C34.3 70.61 34.85 70.63 35.29 70.6L36.09 70.53C36.09 66.62 36.04 66.37 35.42 65.05C35 64.17 34.35 63.25 33.71 62.61C33.14 62.05 32.18 61.35 31.57 61.06C30.96 60.77 29.99 60.43 29.41 60.31C28.83 60.18 28.01 60.09 27.6 60.09C27.18 60.1 26.35 60.24 25.74 60.41ZM63.54 61.53C63.04 61.63 62.05 61.99 61.33 62.34C60.54 62.73 59.6 63.41 58.96 64.07C58.38 64.67 57.64 65.72 57.31 66.42C56.98 67.12 56.6 68.33 56.47 69.11C56.28 70.19 56.27 70.66 56.45 71.04C56.65 71.5 56.68 71.43 56.69 70.43C56.7 69.82 56.81 68.9 56.92 68.4C57.04 67.9 57.38 66.99 57.67 66.39C57.97 65.79 58.67 64.83 59.24 64.26C59.8 63.69 60.79 62.96 61.45 62.64C62.1 62.32 63.16 61.95 63.79 61.83C64.43 61.7 64.95 61.53 64.95 61.45C64.95 61.37 64.83 61.31 64.7 61.32C64.56 61.33 64.04 61.42 63.54 61.53ZM65.55 61.45C65.55 61.53 66.07 61.7 66.71 61.82C67.34 61.94 68.4 62.29 69.07 62.6C69.85 62.96 70.7 63.6 71.49 64.41C72.45 65.41 72.81 65.97 73.26 67.18C73.64 68.22 73.83 69.15 73.86 70.1C73.88 70.86 73.96 71.52 74.04 71.57C74.13 71.61 74.19 71.08 74.19 70.38C74.19 69.68 74.07 68.65 73.92 68.1C73.77 67.54 73.37 66.58 73.03 65.97C72.69 65.35 71.98 64.42 71.44 63.89C70.91 63.36 70.07 62.7 69.57 62.43C69.07 62.15 68.08 61.79 67.36 61.62C66.64 61.44 65.94 61.3 65.8 61.3C65.66 61.3 65.55 61.37 65.55 61.45Z" />
		<path id="Path 26" class="shp6" d="M128.08 62.24C127.47 62.53 126.58 63.1 126.09 63.5C125.6 63.91 124.91 64.7 124.55 65.25C124.18 65.81 123.75 66.59 123.59 66.98C123.43 67.37 123.19 68.28 123.06 69.01C122.93 69.74 122.88 70.67 122.94 71.09C123 71.51 123.12 71.85 123.21 71.85C123.29 71.85 123.33 71.41 123.28 70.89C123.24 70.36 123.31 69.42 123.44 68.81C123.56 68.19 123.92 67.14 124.23 66.47C124.61 65.67 125.21 64.87 125.99 64.14C126.65 63.52 127.7 62.77 128.34 62.46C128.97 62.16 129.49 61.86 129.49 61.8C129.49 61.75 129.42 61.7 129.34 61.71C129.26 61.71 128.69 61.95 128.08 62.24ZM26.84 62.71C26.4 62.77 25.68 62.99 25.23 63.18C24.51 63.51 24.43 63.62 24.38 64.35C24.35 64.79 24.42 65.5 24.53 65.91C24.64 66.33 25.12 67.1 25.59 67.61C26.06 68.13 26.55 68.72 26.68 68.93C26.91 69.3 26.92 69.3 26.93 68.91C26.93 68.69 27.05 68.39 27.18 68.25C27.32 68.11 27.63 68 27.89 68C28.2 68 28.39 68.15 28.48 68.45C28.56 68.77 28.47 69.01 28.17 69.26C27.75 69.62 27.75 69.62 28.5 69.8C28.92 69.9 29.5 70.04 29.81 70.11C30.24 70.2 30.34 70.16 30.26 69.92C30.18 69.67 30.4 69.62 31.47 69.62C32.67 69.62 32.77 69.65 32.67 70.02C32.59 70.35 32.67 70.43 33.08 70.43C33.46 70.43 33.61 70.3 33.71 69.87C33.78 69.57 33.79 68.77 33.74 68.1C33.68 67.28 33.45 66.52 33.06 65.79C32.74 65.18 32.2 64.46 31.87 64.18C31.54 63.9 30.81 63.46 30.26 63.21C29.71 62.97 28.89 62.72 28.45 62.68C28.01 62.63 27.29 62.64 26.84 62.71Z" />
		<path id="Path 27" class="shp5" d="M41.15 63.54C40.62 64.15 39.97 65.1 39.71 65.66C39.46 66.22 39.14 67.27 39.01 68C38.88 68.72 38.84 69.68 38.91 70.13C38.98 70.57 39.08 71.1 39.12 71.29C39.19 71.58 39.43 71.65 40.37 71.65L41.52 71.65C41.52 68.2 41.61 67.47 41.88 66.88C42.16 66.25 42.23 65.66 42.18 64.25L42.12 62.44L41.15 63.54ZM26 63.8C25.64 63.93 25.24 64.15 25.09 64.29C24.88 64.5 25 64.72 25.74 65.45C26.23 65.95 26.71 66.31 26.79 66.26C26.88 66.21 26.94 65.57 26.94 64.85C26.94 64.12 26.88 63.54 26.79 63.55C26.71 63.55 26.35 63.67 26 63.8ZM28.65 63.66C28.56 63.74 28.5 64.33 28.52 64.98C28.54 65.64 28.62 66.21 28.7 66.26C28.79 66.31 29.31 65.91 29.86 65.36L30.86 64.37C29.93 63.92 29.47 63.73 29.24 63.65C29.01 63.58 28.75 63.59 28.65 63.66ZM63.84 64.32C63.51 64.4 62.92 64.64 62.53 64.84C62.15 65.04 61.48 65.53 61.06 65.94C60.63 66.34 60.11 67.02 59.9 67.44C59.69 67.86 59.42 68.68 59.3 69.26C59.17 69.85 59.13 70.63 59.2 70.99C59.28 71.47 59.42 71.65 59.72 71.65C59.94 71.65 60.12 71.56 60.12 71.45C60.12 71.33 60.72 71.24 61.53 71.24C62.33 71.24 62.94 71.33 62.94 71.45C62.94 71.57 63.87 71.65 65.35 71.65C66.82 71.65 67.76 71.57 67.76 71.45C67.76 71.33 68.33 71.24 69.07 71.24C69.81 71.24 70.38 71.33 70.38 71.45C70.38 71.56 70.62 71.65 70.93 71.65L71.48 71.65C71.28 68.86 71.12 68.25 70.66 67.41C70.34 66.8 69.71 66.01 69.27 65.64C68.83 65.28 68.1 64.83 67.66 64.64C67.22 64.46 66.31 64.27 65.65 64.23C64.99 64.19 64.17 64.23 63.84 64.32Z" />
		<path id="Path 28" class="shp6" d="M128.69 65.12C128.19 65.43 127.52 66 127.2 66.38C126.88 66.77 126.45 67.45 126.26 67.89C126.06 68.34 125.89 69.07 125.87 69.52C125.85 69.96 125.84 70.63 125.85 70.99C125.87 71.54 125.96 71.66 126.37 71.7C126.7 71.73 126.84 71.66 126.77 71.5C126.71 71.32 126.91 71.24 127.43 71.24C127.84 71.24 128.28 71.17 128.4 71.09C128.51 71.01 128.76 70.71 128.95 70.43C129.14 70.15 129.29 69.81 129.29 69.67C129.29 69.49 128.89 69.42 127.98 69.42C126.72 69.42 126.68 69.4 126.8 68.96C126.87 68.71 127.05 68.25 127.2 67.94C127.36 67.64 127.55 67.38 127.63 67.38C127.71 67.38 128.1 67.71 128.49 68.11L129.19 68.83C129.36 67.05 129.31 66.55 129.14 66.32C128.93 66.03 128.94 65.94 129.16 65.81C129.31 65.73 129.47 65.41 129.52 65.1C129.57 64.8 129.61 64.54 129.6 64.54C129.6 64.54 129.18 64.8 128.69 65.12Z" />
		<path id="Path 29" class="shp1" d="M63.14 65.57L62.23 65.98C63.79 67.54 64.27 68 64.29 68C64.32 68 64.34 67.36 64.34 66.57C64.34 65.79 64.28 65.16 64.19 65.16C64.11 65.16 63.63 65.35 63.14 65.57ZM66.15 66.47C66.15 67.2 66.22 67.83 66.3 67.89C66.39 67.94 66.91 67.53 67.46 66.98L68.47 65.98C67.06 65.35 66.54 65.16 66.4 65.16C66.23 65.15 66.15 65.55 66.15 66.47ZM129.69 65.57L128.79 65.98C130.19 67.39 130.66 67.8 130.75 67.79C130.83 67.79 130.9 67.2 130.9 66.47C130.9 65.75 130.83 65.16 130.75 65.16C130.66 65.16 130.19 65.35 129.69 65.57Z" />
		<path id="Path 30" class="shp6" d="M130.96 66.47C130.96 67.25 131 67.53 131.04 67.08C131.09 66.64 131.09 66 131.04 65.66C131 65.33 130.96 65.69 130.96 66.47Z" />
		<path id="Path 31" class="shp1" d="M132.71 66.47C132.71 67.39 132.78 67.79 132.96 67.8C133.1 67.8 133.55 67.45 133.96 67.03C134.37 66.61 134.71 66.16 134.72 66.02C134.72 65.88 134.36 65.63 133.91 65.46C133.47 65.29 133.02 65.15 132.91 65.15C132.8 65.15 132.71 65.73 132.71 66.47Z" />
		<path id="Path 32" class="shp4" d="M23.24 66.01C23.07 66.26 22.86 66.82 22.77 67.25L22.62 68.03L25.9 67.89C24.92 66.79 24.39 66.26 24.1 66L23.56 65.54L23.24 66.01Z" />
		<path id="Path 33" class="shp5" d="M30.96 66.63C30.47 67.11 30.09 67.57 30.12 67.65C30.14 67.73 30.75 67.79 31.47 67.79C32.5 67.79 32.77 67.73 32.77 67.49C32.77 67.32 32.62 66.86 32.42 66.47C32.23 66.08 32.02 65.76 31.96 65.76C31.9 65.76 31.45 66.15 30.96 66.63Z" />
		<path id="Path 34" class="shp4" d="M41.82 66.94C41.68 67.24 41.52 68.13 41.47 68.91C41.41 69.71 41.47 70.66 41.59 71.09C41.78 71.7 41.9 71.83 42.23 71.75C42.56 71.67 42.61 71.53 42.53 70.94L42.43 70.23L44.61 70.13C43.68 68.75 43.35 68.49 42.97 68.45C42.46 68.4 42.43 68.34 42.45 67.5C42.46 67 42.38 66.55 42.27 66.49C42.16 66.43 41.96 66.63 41.82 66.94Z" />
		<path id="Path 35" class="shp1" d="M60.57 68.26C60.32 68.78 60.14 69.26 60.17 69.32C60.2 69.37 60.84 69.4 61.59 69.37L62.95 69.31L61.02 67.31L60.57 68.26ZM68.56 68.26C68.08 68.74 67.69 69.19 67.72 69.27C67.74 69.35 68.35 69.42 69.07 69.42C70.1 69.42 70.38 69.35 70.38 69.11C70.38 68.94 70.22 68.49 70.02 68.09C69.83 67.7 69.62 67.38 69.56 67.38C69.5 67.38 69.05 67.78 68.56 68.26ZM127.21 67.94C127.05 68.25 126.87 68.71 126.8 68.96C126.68 69.4 126.72 69.42 128.08 69.42C128.86 69.42 129.49 69.35 129.49 69.26C129.49 69.18 129.1 68.72 128.63 68.25C128.16 67.77 127.72 67.38 127.63 67.38C127.55 67.38 127.36 67.64 127.21 67.94ZM135.12 68.26C134.63 68.74 134.25 69.19 134.27 69.27C134.3 69.35 134.9 69.42 135.62 69.42C136.65 69.42 136.93 69.35 136.93 69.11C136.93 68.94 136.77 68.49 136.58 68.09C136.38 67.7 136.18 67.38 136.12 67.38C136.06 67.38 135.61 67.78 135.12 68.26Z" />
		<path id="Path 36" class="shp5" d="M27.14 68.24C26.99 68.37 26.88 68.65 26.9 68.85C26.93 69.05 27.12 69.3 27.35 69.42C27.65 69.57 27.85 69.53 28.17 69.26C28.47 69.01 28.56 68.77 28.48 68.45C28.39 68.15 28.2 68 27.89 68C27.63 68 27.3 68.1 27.14 68.24Z" />
		<path id="Path 37" class="shp4" d="M25.76 68.5C25.59 68.74 25.61 68.83 25.84 68.91C26 68.96 26.23 68.96 26.34 68.91C26.45 68.85 26.5 68.67 26.44 68.5C26.39 68.34 26.26 68.2 26.16 68.2C26.06 68.2 25.88 68.34 25.76 68.5Z" />
		<path id="Path 38" class="shp6" d="M136.92 69.16C136.93 69.33 136.53 69.43 135.67 69.45L134.42 69.49C136.22 69.61 136.85 69.55 136.98 69.43C137.12 69.31 137.16 69.15 137.08 69.06C136.99 68.98 136.92 69.02 136.92 69.16Z" />
		<path id="Path 39" class="shp4" d="M22.72 69.82C22.72 70.05 22.86 70.55 23.02 70.94C23.19 71.33 23.39 71.65 23.48 71.65C23.56 71.65 24.06 71.22 24.59 70.69C25.11 70.16 25.48 69.65 25.39 69.56C25.3 69.48 24.67 69.41 23.98 69.41C22.86 69.42 22.72 69.46 22.72 69.82Z" />
		<path id="Path 40" class="shp5" d="M30.2 69.87C30.25 70.01 30.78 70.19 31.38 70.26C31.98 70.34 32.54 70.36 32.62 70.31C32.71 70.27 32.77 70.09 32.77 69.92C32.77 69.68 32.49 69.62 31.44 69.62C30.47 69.62 30.14 69.69 30.2 69.87Z" />
		<path id="Path 41" class="shp1" d="M64.63 69.87C64.57 70.01 64.55 70.31 64.58 70.53C64.63 70.83 64.81 70.94 65.23 70.94C65.55 70.94 65.91 70.79 66.03 70.6C66.2 70.34 66.18 70.18 65.95 69.93C65.79 69.75 65.44 69.6 65.19 69.61C64.94 69.61 64.69 69.73 64.63 69.87ZM131.27 69.94C131.07 70.18 131.05 70.35 131.22 70.6C131.34 70.79 131.61 70.97 131.82 71C132.03 71.04 132.32 70.92 132.46 70.75C132.63 70.52 132.65 70.31 132.51 70.02C132.4 69.8 132.13 69.62 131.93 69.62C131.72 69.62 131.42 69.76 131.27 69.94Z" />
		<path id="Path 42" class="shp4" d="M27.47 70.22C27.4 70.33 27.39 70.52 27.45 70.63C27.5 70.75 27.68 70.84 27.85 70.84C28.02 70.84 28.13 70.69 28.1 70.5C28.07 70.31 27.95 70.12 27.82 70.08C27.7 70.04 27.54 70.1 27.47 70.22Z" />
		<path id="Path 43" class="shp5" d="M43.58 70.18C42.82 70.21 42.43 70.31 42.43 70.48C42.43 70.62 42.48 70.94 42.53 71.19C42.61 71.57 42.76 71.65 43.38 71.64C43.97 71.63 44.25 71.49 44.64 71.01C44.94 70.65 45.06 70.35 44.94 70.26C44.83 70.19 44.22 70.15 43.58 70.18Z" />
		<path id="Path 44" class="shp4" d="M31.17 70.94C31.55 71.33 31.94 71.65 32.02 71.65C32.1 71.65 32.31 71.37 32.47 71.04C32.77 70.43 32.77 70.43 32.12 70.33C31.76 70.27 31.24 70.22 30.97 70.22C30.47 70.22 30.47 70.23 31.17 70.94ZM44.62 70.94C44.35 71.22 44.18 71.48 44.24 71.53C44.29 71.57 44.83 71.63 45.44 71.65C46.05 71.68 46.71 71.69 46.9 71.67C47.11 71.66 47.23 71.51 47.2 71.3C47.17 71.07 46.83 70.85 46.27 70.69C45.78 70.55 45.32 70.43 45.25 70.43C45.17 70.43 44.89 70.66 44.62 70.94ZM25.61 72.06L24.63 73.06C26.03 73.69 26.55 73.87 26.69 73.88C26.87 73.88 26.95 73.48 26.96 72.57C26.98 71.85 26.9 71.22 26.79 71.16C26.68 71.1 26.15 71.51 25.61 72.06ZM28.55 72.46C28.55 73.59 28.61 73.88 28.85 73.88C29.02 73.88 29.52 73.7 29.96 73.48C30.4 73.25 30.76 73 30.76 72.92C30.76 72.83 30.38 72.38 29.91 71.9C29.44 71.42 28.94 71.04 28.8 71.04C28.63 71.04 28.55 71.46 28.55 72.46ZM47.86 71.34C47.86 71.51 48.06 71.7 48.31 71.77C48.56 71.84 49.17 72.27 49.66 72.74L50.57 73.58L48.76 71.64L50.97 71.6C49.41 71.37 48.71 71.24 48.41 71.17C48 71.07 47.86 71.11 47.86 71.34Z" />
		<path id="Path 45" class="shp1" d="M60.23 71.7C60.31 71.95 60.5 72.41 60.65 72.71C60.8 73.02 60.99 73.27 61.08 73.28C61.16 73.28 61.61 72.89 62.08 72.41C62.55 71.94 62.93 71.48 62.93 71.39C62.93 71.31 62.29 71.24 61.51 71.24C60.12 71.24 60.09 71.25 60.23 71.7ZM67.76 71.39C67.76 71.48 68.16 71.96 68.66 72.46C69.16 72.96 69.6 73.33 69.64 73.27C69.69 73.22 69.87 72.87 70.05 72.51C70.23 72.15 70.38 71.71 70.38 71.55C70.38 71.31 70.1 71.24 69.07 71.24C68.35 71.24 67.76 71.31 67.76 71.39ZM126.86 71.8C126.95 72.11 127.12 72.56 127.25 72.82C127.38 73.07 127.55 73.27 127.63 73.28C127.71 73.28 128.16 72.89 128.63 72.41C129.1 71.94 129.49 71.48 129.49 71.39C129.49 71.31 128.87 71.24 128.1 71.24L126.71 71.24L126.86 71.8ZM134.31 71.39C134.31 71.48 134.72 71.96 135.21 72.46C135.71 72.96 136.15 73.33 136.2 73.27C136.24 73.22 136.42 72.87 136.6 72.51C136.78 72.15 136.93 71.71 136.93 71.55C136.93 71.31 136.65 71.24 135.62 71.24C134.9 71.24 134.32 71.31 134.31 71.39Z" />
		<path id="Path 46" fill-rule="evenodd" class="shp6" d="M41.72 71.55L42.28 72.41C42.58 72.88 43.08 73.51 43.38 73.81C43.69 74.1 44.43 74.58 45.04 74.86C45.85 75.24 46.49 75.38 47.45 75.39C48.28 75.4 49.09 75.26 49.66 75.03C50.16 74.82 50.92 74.36 51.35 74.01C51.78 73.66 52.37 72.97 53.18 71.59L54.32 71.67C54.95 71.71 55.54 71.82 55.63 71.9C55.72 71.99 55.62 72.44 55.4 72.91C55.17 73.38 54.67 74.18 54.28 74.69C53.88 75.19 53.07 75.97 52.47 76.41C51.85 76.87 50.74 77.42 49.92 77.68C49.11 77.94 48.03 78.14 47.5 78.15C46.98 78.15 45.91 77.93 45.14 77.67C44.37 77.41 43.46 77.05 43.13 76.87C42.8 76.7 41.97 75.98 41.29 75.27C40.61 74.56 39.86 73.55 39.63 73.02C39.4 72.49 39.21 71.96 39.21 71.85C39.21 71.74 39.77 71.63 40.47 71.6L41.72 71.55ZM50.77 71.46L51.41 71.5C51.76 71.53 52.09 71.59 52.16 71.65C52.22 71.7 52.16 71.91 52.03 72.12C51.79 72.46 51.75 72.45 51.27 71.97L50.77 71.46ZM43.32 71.65C44.01 71.65 44.02 71.66 43.68 72.06C43.49 72.29 43.29 72.47 43.23 72.47C43.18 72.46 43.02 72.28 42.88 72.06C42.64 71.68 42.67 71.65 43.32 71.65ZM59.79 71.65C60.16 71.65 60.34 71.76 60.37 72.03C60.41 72.3 60.28 72.44 59.97 72.49C59.73 72.53 59.52 72.49 59.52 72.41C59.52 72.33 59.46 72.12 59.39 71.95C59.29 71.73 59.39 71.65 59.79 71.65ZM65.34 71.64C67.38 71.63 67.91 71.69 68.11 71.94C68.33 72.22 68.2 72.26 66.96 72.31C65.94 72.34 65.55 72.29 65.55 72.11C65.55 71.97 65.41 71.85 65.25 71.85C65.08 71.85 64.98 71.97 65.02 72.11C65.08 72.29 64.72 72.36 63.71 72.36C62.95 72.36 62.31 72.31 62.29 72.25C62.27 72.19 62.38 72.03 62.53 71.89C62.72 71.73 63.68 71.65 65.34 71.64ZM70.79 71.65C71.03 71.65 71.18 71.79 71.18 72C71.17 72.26 71.03 72.34 70.67 72.31C70.32 72.27 70.21 72.17 70.29 71.95C70.36 71.79 70.58 71.65 70.79 71.65ZM46.39 71.85C46.57 71.85 46.65 72.23 46.65 73.17C46.65 74.35 46.61 74.49 46.25 74.49C46.03 74.49 45.55 74.34 45.19 74.16C44.83 73.98 44.49 73.79 44.44 73.75C44.38 73.71 44.74 73.26 45.23 72.76C45.73 72.26 46.25 71.85 46.39 71.85ZM48.51 71.85C48.65 71.85 49.17 72.26 49.66 72.76C50.16 73.26 50.52 73.71 50.47 73.76C50.41 73.81 49.96 74.04 49.46 74.26C48.97 74.48 48.49 74.63 48.41 74.58C48.33 74.53 48.26 73.9 48.26 73.17C48.26 72.25 48.33 71.85 48.51 71.85ZM64.4 72.82C64.48 72.9 64.53 73.56 64.44 75.61L64.34 74.14C64.29 73.34 64.31 72.75 64.4 72.82ZM130.95 72.82C131.04 72.9 131.08 73.56 130.99 75.61L130.9 74.14C130.84 73.34 130.87 72.75 130.95 72.82Z" />
		<path id="Path 47" class="shp1" d="M63.13 73.76L62.23 74.66C63.56 75.32 64.03 75.5 64.14 75.5C64.26 75.5 64.34 74.93 64.34 74.19C64.34 73.46 64.27 72.87 64.18 72.87C64.1 72.87 63.62 73.27 63.13 73.76ZM66.15 74.19C66.15 74.93 66.24 75.5 66.35 75.5C66.46 75.5 66.92 75.37 67.36 75.2C67.8 75.03 68.16 74.83 68.16 74.74C68.16 74.66 67.78 74.2 67.31 73.73C66.84 73.25 66.39 72.86 66.3 72.86C66.22 72.87 66.15 73.46 66.15 74.19ZM129.68 73.76L128.79 74.66C129.72 75.12 130.2 75.31 130.45 75.38C130.88 75.5 130.9 75.46 130.9 74.19C130.9 73.46 130.83 72.87 130.74 72.87C130.65 72.87 130.18 73.27 129.68 73.76ZM132.71 74.19C132.71 75.11 132.78 75.5 132.96 75.5C133.1 75.5 133.62 75.31 134.12 75.09L135.02 74.68C133.62 73.27 133.1 72.86 132.96 72.86C132.78 72.87 132.71 73.27 132.71 74.19Z" />
		<path id="Path 48" fill-rule="evenodd" class="shp4" d="M87.97 73.27C89.3 73.27 89.61 73.35 90.63 73.93C91.69 74.53 91.94 74.59 93.5 74.59C95.06 74.59 95.31 74.53 96.36 73.93C97.44 73.32 97.63 73.28 100.84 73.37L99.63 74.62C98.9 75.38 97.99 76.08 97.32 76.39C96.71 76.67 95.6 77.05 94.86 77.22C93.63 77.5 93.36 77.5 92.14 77.22C91.39 77.05 90.33 76.7 89.78 76.45C89.23 76.2 88.25 75.5 87.62 74.89C86.99 74.28 86.47 73.67 86.46 73.53C86.46 73.35 86.89 73.27 87.97 73.27ZM91.84 73.28C92.47 73.27 92.69 73.35 92.69 73.58C92.69 73.74 92.54 73.88 92.34 73.87C92.15 73.87 91.76 73.74 91.49 73.58C90.99 73.29 91 73.29 91.84 73.28ZM95.16 73.28C96 73.29 96 73.29 95.51 73.58C95.23 73.74 94.85 73.87 94.65 73.87C94.46 73.88 94.3 73.74 94.3 73.58C94.3 73.35 94.53 73.27 95.16 73.28Z" />
		<path id="Path 49" class="shp6" d="M106.59 73.73C106.73 73.98 107.3 74.67 107.86 75.27C108.42 75.87 109.24 76.57 109.68 76.83C110.13 77.09 111.12 77.49 111.9 77.72C112.67 77.96 113.67 78.15 114.11 78.15C114.55 78.15 115.55 77.96 116.32 77.72C117.09 77.49 118.09 77.09 118.53 76.83C118.97 76.57 119.8 75.87 120.36 75.27C120.92 74.67 121.48 73.98 121.61 73.73C121.85 73.27 121.84 73.27 120.29 73.28C118.83 73.29 118.69 73.33 118.03 73.93C117.64 74.28 116.92 74.75 116.42 74.97C115.79 75.26 115.09 75.38 114.11 75.38C113.13 75.38 112.43 75.26 111.8 74.97C111.3 74.75 110.57 74.28 110.19 73.93C109.53 73.33 109.38 73.29 107.91 73.28C106.35 73.27 106.34 73.27 106.59 73.73ZM111.1 73.48C111.04 73.59 111.11 73.76 111.24 73.87C111.38 73.97 111.88 74.2 112.35 74.38L113.2 74.69L113.2 73.27C111.66 73.27 111.16 73.36 111.1 73.48ZM115.01 73.98L115.01 74.69C116.34 74.2 116.84 73.97 116.97 73.87C117.11 73.76 117.18 73.59 117.12 73.48C117.07 73.36 116.57 73.27 116.02 73.27L115.01 73.27L115.01 73.98Z" />
	</g>
</svg>