<svg xmlns="http://www.w3.org/2000/svg" viewBox="0 0 350 190" width="350" height="190">
	<style>
		tspan { white-space:pre }
		.shp0 { fill: #f7941d } 
		.shp1 { fill: #000000 } 
		.shp2 { fill: #fff952 } 
		.shp3 { fill: #ffbd4a } 
		.shp4 { fill: #fff96c } 
		.shp5 { fill: #ffc34d } 
		.shp6 { fill: #ffc35c } 
	</style>
	<g id="Background">
		<path id="Path 0" class="shp0" d="M17.37 7.88C17.37 8.33 17.16 8.91 16.9 9.17C16.59 9.49 16.66 9.99 17.13 10.7C17.51 11.28 18.09 11.75 18.41 11.74C18.74 11.73 19.42 12.16 19.94 12.7C20.46 13.23 21.09 13.66 21.35 13.65C21.61 13.64 22.16 14.21 22.57 14.93C23.03 15.7 23.26 16.93 23.16 17.99L22.99 19.75C20.63 17.95 19.78 17.42 19.59 17.41C19.39 17.41 19.23 17.56 19.22 17.75C19.21 17.95 20.06 18.74 21.11 19.52C22.97 20.89 23.03 21 23.01 23.63L22.99 26.34C20.63 25.02 19.52 24.47 19 24.27C18.12 23.93 18.11 23.96 18.84 24.77C19.26 25.24 20.37 26.05 21.3 26.57C22.61 27.3 23 27.81 22.99 28.81C22.99 29.52 22.83 30.11 22.64 30.12C22.44 30.12 21.7 29.7 21 29.17C20.25 28.62 19.61 28.42 19.47 28.69C19.34 28.95 19.97 29.69 20.88 30.33C22.34 31.38 22.52 31.75 22.52 33.63C22.52 34.79 22.41 35.74 22.29 35.74C22.16 35.74 21.47 35.31 20.76 34.79C20.05 34.26 19.31 33.84 19.12 33.85C18.93 33.85 18.77 34.02 18.78 34.21C18.78 34.41 19.63 35.15 20.65 35.86C22.07 36.84 22.52 37.47 22.51 38.45C22.51 39.16 22.35 40.53 22.16 41.49L21.82 43.25C16.78 40.47 16.72 40.46 18.06 41.62C18.84 42.29 20.05 43.2 20.75 43.64L22.03 44.44C22.05 56.76 21.97 57.38 21.23 57.37C20.57 57.36 20.52 57.48 21 57.96C21.35 58.3 21.59 59.69 21.59 61.26L21.58 63.96C18.85 61.86 17.39 60.65 16.57 59.9L15.08 58.55C14.66 60.56 14.44 61.83 14.31 62.67C14.13 63.85 14.17 63.98 14.5 63.25C14.74 62.74 15.06 61.94 15.21 61.49C15.45 60.78 15.88 60.95 18.41 62.75L21.35 64.83L21.66 72.66C19.96 71.41 18.58 70.45 17.48 69.74C16.39 69.02 15.23 67.84 14.9 67.13C14.58 66.42 14.26 65.89 14.19 65.96C14.13 66.02 14.25 66.92 14.45 67.96C14.65 68.99 15.05 69.84 15.34 69.84C15.62 69.84 17.15 70.79 18.73 71.96L21.61 74.07C21.59 78.26 21.42 79.48 21.23 79.47C21.04 79.47 20.18 78.78 19.32 77.94C18.46 77.11 17.46 76.37 17.09 76.31C16.72 76.24 16.41 76.35 16.41 76.54C16.4 76.73 17.45 77.74 18.75 78.77C20.04 79.81 21.22 81.08 21.37 81.6C21.52 82.11 21.46 83.91 21.24 85.59C21.01 87.28 20.91 89.6 21.01 90.77C21.16 92.7 21.23 92.8 21.79 91.94C22.24 91.26 22.55 86.61 22.94 75.01C23.23 66.22 23.81 48.65 24.21 35.98C24.74 19.75 25.12 12.84 25.5 12.62C25.8 12.45 27.73 12.18 29.79 12.02C31.86 11.86 39.35 11.75 46.45 11.78C53.54 11.8 65.47 11.69 72.96 11.52C80.44 11.36 94.37 10.7 103.92 10.06C113.47 9.42 121.34 8.86 121.4 8.8C121.47 8.75 121.42 8.33 121.29 7.88C121.07 7.13 120.23 7.05 112.37 7.05C106.74 7.05 103.77 7.22 103.92 7.52C104.05 7.79 103.45 8 102.51 8C101.61 8 100.87 7.78 100.87 7.52C100.87 7.27 100.5 7.06 100.05 7.06C99.44 7.07 99.39 7.16 99.86 7.41C100.2 7.6 100.52 7.97 100.56 8.23C100.6 8.49 99.48 8.81 98.06 8.94C96.64 9.07 95.18 8.97 94.81 8.71C94.35 8.37 94.1 8.4 93.99 8.82C93.88 9.23 92.69 9.41 90.08 9.41C87.52 9.41 86.25 9.22 86.09 8.82C85.9 8.35 85.81 8.35 85.62 8.82C85.46 9.22 84.25 9.41 81.87 9.41C79.47 9.41 78.29 9.22 78.15 8.82C78 8.38 77.83 8.41 77.47 8.94C77.12 9.44 75.95 9.68 73.44 9.76C70.56 9.85 69.91 9.75 69.91 9.17C69.91 8.78 69.64 8.46 69.32 8.45C69 8.44 69.16 8.12 69.67 7.74C70.19 7.35 70.4 7.03 70.14 7.03C69.88 7.02 69.41 7.29 69.08 7.62C68.76 7.96 68.61 8.55 68.75 8.94C68.93 9.44 68.55 9.75 67.46 10C66.61 10.2 65.23 10.36 64.39 10.35C63.18 10.35 62.87 10.15 62.87 9.41C62.87 8.89 62.6 8.46 62.28 8.45C61.96 8.44 62.12 8.12 62.63 7.74C63.54 7.07 63.52 7.04 62.16 7.05C61.39 7.06 60.97 7.22 61.23 7.41C61.49 7.6 61.75 8.34 61.81 9.05C61.93 10.34 61.92 10.35 58.88 10.35C55.91 10.35 55.82 10.31 55.36 8.94C55.1 8.16 54.63 7.53 54.31 7.53C53.92 7.54 53.95 7.69 54.42 8C54.89 8.3 54.93 8.45 54.54 8.46C54.11 8.46 54.08 8.72 54.42 9.41C54.87 10.31 54.74 10.35 51.14 10.35C47.51 10.35 47.38 10.31 47.15 9.17C47.02 8.52 47.02 7.78 47.15 7.52C47.28 7.27 47.02 7.06 46.57 7.06C45.94 7.06 45.77 7.4 45.86 8.47L45.98 9.88C40.71 9.89 37.72 10.02 35.95 10.17C32.93 10.43 32.71 10.39 32.55 9.46C32.45 8.91 32.16 8.47 31.9 8.47C31.65 8.47 31.43 8.62 31.43 8.82C31.42 9.01 31.69 9.43 32.01 9.74C32.48 10.18 32.16 10.37 30.5 10.61C29.33 10.77 27.98 10.84 27.49 10.75C27 10.66 26.26 9.91 25.85 9.08C25.44 8.26 24.73 7.47 24.28 7.32C23.53 7.08 23.54 7.21 24.4 8.7C24.91 9.61 25.34 10.56 25.34 10.82C25.34 11.08 24.97 11.4 24.51 11.53C23.98 11.7 23.08 11.16 21.92 10.01C20.95 9.03 20.26 7.97 20.4 7.64C20.57 7.24 20.13 7.05 19 7.05C17.75 7.05 17.36 7.25 17.37 7.88Z" />
		<path id="Path 1" class="shp1" d="M20.38 7.64C20.19 7.99 20.81 8.96 21.88 10.01C23.06 11.17 23.98 11.7 24.51 11.54C24.97 11.4 25.34 11.08 25.34 10.82C25.34 10.56 24.91 9.61 24.4 8.7C23.66 7.4 23.16 7.05 22.07 7.05C21.31 7.05 20.55 7.32 20.38 7.64ZM25.6 7.72C25.46 8.13 25.65 8.99 26.04 9.64C26.6 10.58 27.1 10.81 28.5 10.77C29.47 10.74 30.79 10.58 31.43 10.4C32.21 10.18 32.41 9.96 32.02 9.74C31.7 9.56 31.43 9.19 31.43 8.94C31.43 8.68 31.65 8.47 31.9 8.47C32.16 8.47 32.48 8.89 32.61 9.41C32.82 10.26 33.13 10.33 36.01 10.12C37.75 10 40.71 9.89 42.58 9.89C45.89 9.88 45.98 9.85 45.98 8.7C45.98 7.86 45.68 7.46 44.92 7.3C44.34 7.17 41.23 7.16 38 7.26C34.78 7.36 31.93 7.46 31.67 7.47C31.41 7.47 30 7.37 28.54 7.22C26.37 7.02 25.82 7.11 25.6 7.72ZM47.21 7.49C47.05 7.77 47.02 8.52 47.15 9.17C47.38 10.31 47.51 10.35 51.14 10.35C54.74 10.35 54.87 10.31 54.42 9.41C54.07 8.69 54.12 8.41 54.66 8.23C55.13 8.07 55.44 8.39 55.6 9.17C55.82 10.28 56 10.35 58.88 10.35L61.93 10.35C61.73 7.94 61.4 7.4 60.76 7.23C60.24 7.09 58.76 7.1 57.47 7.25C56.18 7.4 54.81 7.51 54.42 7.51C54.04 7.5 52.32 7.38 50.62 7.23C48.63 7.07 47.4 7.16 47.21 7.49ZM62.86 7.73C62.46 8.13 62.3 8.47 62.5 8.47C62.7 8.47 62.87 8.89 62.87 9.41C62.87 10.15 63.18 10.35 64.39 10.35C65.23 10.36 66.61 10.2 67.45 10C68.61 9.73 68.92 9.44 68.74 8.82C68.57 8.24 68.71 8.06 69.2 8.23C69.59 8.36 69.91 8.78 69.91 9.17C69.91 9.75 70.56 9.85 73.44 9.76C75.95 9.68 77.12 9.44 77.47 8.94C77.83 8.41 78 8.38 78.15 8.82C78.29 9.22 79.47 9.41 81.87 9.41C84.25 9.41 85.46 9.22 85.62 8.82C85.81 8.35 85.9 8.35 86.09 8.82C86.25 9.22 87.52 9.41 90.08 9.41C92.69 9.41 93.88 9.23 93.99 8.82C94.1 8.4 94.35 8.37 94.81 8.71C95.18 8.97 96.53 9.07 97.82 8.94C99.16 8.8 100.22 8.45 100.28 8.11C100.35 7.79 99.93 7.43 99.35 7.31C98.77 7.2 95.65 7.18 92.43 7.27C89.2 7.36 86.19 7.45 85.74 7.48C85.29 7.5 83.44 7.52 81.64 7.52C79.83 7.52 78.03 7.52 77.65 7.52C77.26 7.52 75.36 7.52 73.42 7.52C71.49 7.52 69.64 7.52 69.32 7.5C69 7.49 67.57 7.37 66.15 7.24C64.19 7.05 63.4 7.17 62.86 7.73ZM121.43 8.46C121.34 8.73 113.92 9.41 103.92 10.07C94.37 10.7 80.44 11.36 72.96 11.52C65.47 11.69 53.54 11.8 46.45 11.78C39.35 11.75 31.86 11.86 29.79 12.02C27.73 12.18 25.8 12.45 25.5 12.62C25.12 12.84 24.74 19.75 24.21 35.98C23.81 48.65 23.24 66.22 22.94 75.01C22.65 83.81 22.23 91.27 22 91.59C21.74 91.96 21.8 92.27 22.17 92.42C22.49 92.55 47.56 92.6 77.88 92.53L133.01 92.41C133.21 77.47 133.47 72.92 133.72 72.66C134.02 72.35 134.53 72.53 135.23 73.19C135.82 73.74 136.77 74.43 137.35 74.72C137.93 75.01 138.72 75.25 139.11 75.25C139.72 75.25 139.81 73.63 139.81 63.49C139.81 53.35 139.72 51.73 139.11 51.73C138.72 51.73 137.93 51.97 137.35 52.26C136.77 52.55 135.66 53.42 134.89 54.19C134.11 54.96 133.27 55.49 133.01 55.36C132.73 55.22 132.39 50.59 132.16 44.14C131.96 38.1 131.6 30.93 131.36 28.22C131.13 25.5 130.93 20.42 130.93 16.93C130.92 12.57 130.73 10.33 130.32 9.77C129.93 9.23 128.6 8.79 126.44 8.48C124.63 8.22 122.8 8.01 122.37 8C121.93 8 121.51 8.2 121.43 8.46ZM18.1 8.93C17.95 9.19 18.94 10.45 20.29 11.72C21.65 13 22.91 13.95 23.11 13.84C23.3 13.73 23.36 13.37 23.24 13.05C23.12 12.73 21.97 11.56 20.69 10.46C19.41 9.36 18.25 8.67 18.1 8.93ZM17.84 13.76C17.84 14.86 18.04 16.07 18.28 16.46C18.52 16.85 18.53 17.38 18.32 17.64C18.1 17.89 17.86 19.91 17.77 22.1C17.68 24.64 17.83 26.49 18.19 27.16C18.65 28.01 18.64 28.29 18.14 28.57C17.79 28.76 17.39 29.45 17.24 30.1C17.09 30.75 17.21 31.77 17.51 32.36C17.95 33.22 17.93 33.52 17.45 33.78C17.04 33.99 16.63 36.44 16.19 41.39C15.83 45.4 15.54 51 15.53 53.85L15.52 59.02L21.35 63.89C21.54 59.57 21.36 58.32 21 57.94C20.52 57.45 20.57 57.34 21.23 57.36C21.97 57.37 22.05 56.77 22.04 50.91L22.03 44.44C20.05 43.2 18.84 42.29 18.06 41.62C16.72 40.46 16.78 40.47 19.24 41.83L21.82 43.25C22.35 40.53 22.51 39.16 22.51 38.45C22.52 37.47 22.07 36.84 20.65 35.86C19.63 35.15 18.78 34.41 18.78 34.21C18.77 34.02 18.93 33.85 19.12 33.85C19.31 33.84 20.05 34.26 20.76 34.79C21.47 35.31 22.16 35.74 22.29 35.74C22.41 35.74 22.52 34.79 22.52 33.63C22.52 31.75 22.34 31.38 20.88 30.33C19.97 29.69 19.34 28.95 19.47 28.69C19.61 28.42 20.25 28.62 21 29.17C21.7 29.7 22.44 30.12 22.64 30.12C22.83 30.11 22.99 29.52 22.99 28.81C23 27.81 22.61 27.3 21.3 26.57C20.37 26.05 19.26 25.24 18.84 24.77C18.11 23.96 18.12 23.93 19 24.27C19.52 24.47 20.63 25.02 21.46 25.49L22.99 26.34C23.03 21 22.97 20.89 21.11 19.52C20.06 18.74 19.21 17.95 19.22 17.75C19.23 17.56 19.39 17.41 19.59 17.41C19.78 17.42 20.63 17.95 21.46 18.59L22.99 19.75C23.26 16.93 23.03 15.7 22.57 14.93C22.16 14.21 21.61 13.64 21.35 13.65C21.09 13.66 20.46 13.23 19.94 12.7C19.42 12.16 18.74 11.73 18.41 11.74C18.04 11.75 17.83 12.47 17.84 13.76Z" />
		<path id="Path 2" class="shp2" d="M27.68 49.15L27.68 76.19L45.04 76.19C45.04 69.39 44.9 68.66 44.34 68.66C43.95 68.66 43.63 68.35 43.63 67.96C43.63 67.57 43.95 67.25 44.34 67.25C44.95 67.25 45.04 64.43 45.04 44.68L45.04 22.1L27.68 22.1L27.68 49.15ZM53.54 28.64L53.49 35.27C55.85 35.98 57.22 36.88 58.06 37.73C58.92 38.6 59.89 40.3 60.29 41.62C60.74 43.11 61 45.87 61 49.15C61 52.42 60.74 55.18 60.29 56.67C59.89 57.99 58.92 59.69 58.06 60.56C57.22 61.41 55.85 62.31 55.01 62.56L53.49 63.02L53.49 76.19C57.67 75.74 60.04 75.3 61.46 74.93C62.88 74.55 65.19 73.67 66.6 72.98C68.01 72.29 70.24 70.66 71.57 69.37C72.9 68.08 74.57 65.85 75.29 64.43C76 63.01 76.99 60.26 77.48 58.32C78.1 55.83 78.36 53.12 78.36 49.15C78.36 44.98 78.11 42.52 77.4 39.74C76.87 37.67 75.86 34.92 75.16 33.63C74.47 32.33 72.83 30.22 71.53 28.92C70.22 27.63 68.01 26 66.6 25.31C65.19 24.61 62.77 23.73 61.23 23.34C59.68 22.96 57.33 22.5 56 22.33L53.59 22.02L53.54 28.64Z" />
		<path id="Path 3" class="shp3" d="M87.27 49.15L87.27 75.25L103.69 75.25L103.69 23.04L87.27 23.04L87.27 49.15Z" />
		<path id="Path 4" class="shp0" d="M18.06 48.18C19.1 49.11 20.1 49.87 20.29 49.86C20.49 49.86 20.59 49.62 20.53 49.34C20.46 49.06 19.46 48.3 18.3 47.65L16.19 46.47L18.06 48.18Z" />
		<path id="Path 5" class="shp1" d="M144.23 50.91C144.01 51.3 143.94 52.65 144.06 53.9C144.27 56.16 144.3 56.19 146.15 56.5C147.4 56.71 148.45 57.29 149.31 58.27C150.49 59.6 150.6 60.05 150.6 63.49C150.6 66.93 150.49 67.38 149.31 68.71C148.45 69.69 147.4 70.27 146.15 70.48L144.27 70.8L144.27 76.42C147.91 76.35 150.02 75.99 151.31 75.57C152.87 75.07 154.29 74.15 155.56 72.8C156.61 71.69 157.76 69.93 158.12 68.9C158.48 67.86 158.77 65.43 158.77 63.49C158.77 61.55 158.48 59.12 158.12 58.08C157.76 57.05 156.61 55.29 155.56 54.18C154.36 52.9 152.87 51.91 151.54 51.49C150.38 51.13 148.35 50.69 147.02 50.51C145.13 50.27 144.53 50.35 144.23 50.91ZM176.53 50.97C176.36 51.33 176.31 52.65 176.43 53.91C176.62 55.93 176.78 56.22 177.82 56.36C178.46 56.45 179.39 56.87 179.87 57.3C180.36 57.73 181.05 58.77 181.4 59.61L182.04 61.14C188.01 60.93 188.87 60.73 188.98 60.2C189.07 59.81 188.89 58.54 188.59 57.38C188.24 56.02 187.43 54.67 186.32 53.61C185.33 52.66 183.52 51.62 182.03 51.14C180.62 50.68 178.87 50.31 178.16 50.31C177.44 50.32 176.71 50.61 176.53 50.97ZM226.43 50.9C226.32 51.24 226.26 57.12 226.3 63.97L226.37 76.42L233.88 76.42L233.88 50.56C227.58 50.32 226.57 50.44 226.43 50.9ZM238.78 50.67C238.33 50.81 238.18 51.63 238.26 53.54C238.36 55.97 238.52 56.33 240.11 57.68L241.86 59.15L241.86 67.83C238.48 70.69 238.37 70.95 238.36 73.48C238.34 75.26 238.54 76.24 238.92 76.35C239.25 76.44 240.57 76.28 241.87 76C243.17 75.71 245.02 74.9 245.98 74.19C246.94 73.48 248.2 72 248.78 70.9C249.69 69.16 249.83 68.19 249.83 63.49C249.83 58.79 249.69 57.82 248.78 56.08C248.2 54.98 247.04 53.58 246.2 52.97C245.36 52.35 243.93 51.63 243.03 51.37C242.13 51.1 240.94 50.79 240.4 50.68C239.86 50.57 239.13 50.56 238.78 50.67ZM268.09 50.91C267.88 51.3 267.8 52.65 267.92 53.9C268.13 56.16 268.16 56.19 270.01 56.5C271.27 56.71 272.31 57.29 273.17 58.27C274.35 59.6 274.46 60.05 274.46 63.49C274.46 66.93 274.35 67.38 273.17 68.71C272.31 69.69 271.26 70.27 270.01 70.48L268.13 70.8L268.13 76.42C271.77 76.35 273.88 75.99 275.17 75.57C276.73 75.07 278.15 74.15 279.42 72.8C280.47 71.69 281.62 69.93 281.98 68.9C282.34 67.86 282.63 65.43 282.63 63.49C282.63 61.55 282.34 59.12 281.98 58.08C281.62 57.05 280.47 55.29 279.42 54.18C278.22 52.9 276.74 51.91 275.4 51.49C274.24 51.13 272.21 50.69 270.88 50.51C268.99 50.27 268.39 50.35 268.09 50.91ZM289.3 50.89C289.19 51.23 289.13 57.12 289.17 63.97L289.24 76.42L295.34 76.42L295.34 50.56C290.32 50.32 289.44 50.45 289.3 50.89ZM300.5 50.64C300.29 50.81 300.15 51.97 300.19 53.22C300.24 54.58 300.5 55.56 300.85 55.67C301.18 55.76 302.07 56.03 302.85 56.26C304.02 56.62 304.28 56.96 304.38 58.33C304.45 59.23 304.24 60.23 303.91 60.56C303.59 60.88 302.68 61.2 301.91 61.26C300.51 61.37 300.5 61.4 300.4 64.43C300.31 67.23 300.48 67.86 302.51 71.96L304.73 76.42C312.22 76.64 312.94 76.54 312.94 75.95C312.94 75.56 311.88 73.13 310.59 70.54L308.24 65.84C310.89 63.47 311.94 62.1 312.3 61.26C312.65 60.42 312.94 59.04 312.94 58.2C312.94 57.36 312.47 55.73 311.88 54.58C311.12 53.06 310.24 52.18 308.71 51.39C307.18 50.6 305.83 50.3 303.75 50.31C302.18 50.32 300.72 50.46 300.5 50.64ZM202.5 51.14C202.38 51.34 200.37 56.74 198.02 63.14C195.68 69.54 193.77 75.09 193.77 75.48C193.77 76.06 194.46 76.17 197.63 76.07L201.5 75.95C207.03 57.36 208.56 51.7 208.47 51.38C208.37 50.99 207.35 50.79 205.52 50.79C203.98 50.79 202.63 50.95 202.5 51.14ZM326.36 51.14C326.24 51.34 324.23 56.74 321.88 63.14C319.54 69.54 317.63 75.09 317.63 75.48C317.63 76.06 318.32 76.17 321.49 76.07L325.36 75.95C330.89 57.36 332.42 51.7 332.33 51.38C332.23 50.99 331.21 50.79 329.38 50.79C327.84 50.79 326.49 50.95 326.36 51.14ZM170 51.84C169.53 52.11 168.34 53.09 167.36 54.03C166.19 55.14 165.34 56.54 164.89 58.08C164.51 59.38 164.2 61.81 164.2 63.49C164.2 65.17 164.51 67.61 164.89 68.9C165.34 70.43 166.2 71.84 167.36 72.96C168.34 73.9 169.56 74.87 170.07 75.13C170.59 75.38 171.28 75.51 171.6 75.42C172.05 75.29 172.18 72.52 172.16 63.54C172.15 54.15 172.02 51.79 171.51 51.6C171.16 51.47 170.48 51.58 170 51.84ZM260.54 52.8C259.76 53.39 258.55 54.61 257.86 55.51C257.16 56.41 256.39 57.88 256.15 58.79C255.9 59.69 255.7 61.81 255.7 63.49C255.7 65.17 255.9 67.29 256.15 68.19C256.39 69.1 257.09 70.58 257.69 71.49C258.3 72.39 259.52 73.61 260.41 74.2C261.3 74.79 262.4 75.27 262.85 75.26C263.61 75.25 263.67 74.37 263.67 63.49C263.67 52.44 263.62 51.73 262.82 51.73C262.35 51.73 261.33 52.21 260.54 52.8ZM210.73 59.73C209.92 62.57 209.25 65.17 209.26 65.49C209.26 65.81 208.96 66.71 208.59 67.49C208.22 68.26 207.79 69.69 207.64 70.66L207.37 72.43C210.96 72.43 211.2 72.58 211.95 74.19L212.77 75.95C220.06 76.17 220.51 76.09 220.5 75.37C220.5 74.91 218.96 70.04 217.09 64.55C214.6 57.23 213.49 54.55 212.95 54.55C212.42 54.55 211.81 55.97 210.73 59.73ZM334.59 59.73C333.78 62.57 333.11 65.17 333.12 65.49C333.13 65.81 332.82 66.71 332.45 67.49C332.08 68.26 331.65 69.69 331.5 70.66L331.23 72.43C334.82 72.43 335.06 72.58 335.81 74.19L336.63 75.95C343.92 76.17 344.37 76.09 344.36 75.37C344.36 74.91 342.82 70.04 340.95 64.55C338.46 57.23 337.35 54.55 336.81 54.55C336.28 54.55 335.67 55.97 334.59 59.73ZM15.36 61.09C15.25 61.33 14.99 62.45 14.78 63.57C14.53 64.9 14.59 66.09 14.95 67.02C15.25 67.79 16.39 69.02 17.48 69.74C18.58 70.45 19.96 71.41 20.56 71.85L21.66 72.66L21.35 64.83C16.86 61.6 15.47 60.85 15.36 61.09Z" />
		<path id="Path 6" class="shp3" d="M112.13 68.66L112.13 75.25L129.96 75.25L129.96 62.08L112.13 62.08L112.13 68.66Z" />
		<path id="Path 7" class="shp1" d="M181.79 66.64C181.64 67.11 181.26 68.02 180.94 68.66C180.62 69.31 179.73 70.03 178.97 70.26C178.2 70.49 177.32 70.75 176.99 70.84C176.59 70.96 176.44 71.88 176.52 73.72C176.64 76.35 176.68 76.43 178.05 76.56C178.82 76.64 180.57 76.37 181.92 75.97C183.27 75.57 185.14 74.56 186.06 73.72C186.98 72.88 188.05 71.34 188.44 70.31C188.83 69.27 189.08 67.9 188.99 67.25C188.85 66.14 188.67 66.07 185.45 65.94C182.53 65.82 182.02 65.92 181.79 66.64ZM15.27 69.86C15.07 70 15.07 71.11 15.27 72.33C15.46 73.55 15.91 75.02 16.26 75.6C16.61 76.18 17.05 76.56 17.24 76.44C17.44 76.32 18.33 76.96 19.24 77.86C20.14 78.76 21.04 79.49 21.23 79.49C21.42 79.48 21.63 78.25 21.68 76.75C21.78 74.11 21.73 73.97 20.16 72.9C19.26 72.29 17.88 71.3 17.08 70.7C16.28 70.1 15.47 69.72 15.27 69.86ZM15.95 80.42C15.95 83.62 16 83.76 17.71 85.34C18.68 86.23 19.36 87.08 19.24 87.22C19.11 87.37 18.42 87.06 17.71 86.54C16.51 85.66 16.4 85.65 16.13 86.42C15.96 86.87 15.99 87.98 16.18 88.89C16.37 89.79 16.82 91.01 17.18 91.59C17.65 92.36 18.27 92.65 19.47 92.65L21.11 92.65C20.98 89.19 21.09 86.7 21.28 84.89C21.46 83.08 21.44 81.38 21.24 81.12C21.04 80.85 19.93 79.84 18.77 78.87C17.61 77.9 16.5 77.11 16.3 77.12C16.11 77.12 15.95 78.61 15.95 80.42Z" />
		<path id="Path 8" class="shp0" d="M16.45 85.11C16.43 85.37 17 86.02 17.71 86.54C18.42 87.06 19.11 87.38 19.24 87.26C19.36 87.13 19.15 86.68 18.77 86.26C18.38 85.83 17.71 85.29 17.27 85.05C16.76 84.77 16.47 84.79 16.45 85.11Z" />
		<path id="Path 9" class="shp4" d="M77.65 98.51C77.03 99.14 76.51 99.99 76.5 100.39C76.48 100.79 75.68 101.51 74.72 102C73.75 102.48 69.47 104.19 65.21 105.8C60.96 107.41 54.41 110 50.67 111.55C46.93 113.11 43.02 114.81 41.99 115.34C40.89 115.91 37.69 116.67 34.25 117.18C31.02 117.66 25.91 118.21 22.89 118.4C18.06 118.71 17.26 118.88 16.32 119.82C15.48 120.66 15.23 121.48 15.16 123.58C15.11 125.06 14.93 128.07 14.76 130.27C14.54 133.09 14.21 134.55 13.62 135.21C13.17 135.73 12.45 137.21 12.02 138.5C11.53 139.99 11.25 142.4 11.26 145.09C11.26 147.41 11.5 150.17 11.79 151.2C12.12 152.37 13.4 154.28 15.19 156.26C17.92 159.28 18.24 159.48 21.58 160.35C23.52 160.85 26.79 161.5 28.85 161.79C30.92 162.07 35.35 162.41 38.71 162.54C42.73 162.69 44.92 162.96 45.15 163.33C45.34 163.64 45.84 164.96 46.27 166.25C46.7 167.54 47.73 169.55 48.57 170.72C49.4 171.88 51.01 173.6 52.14 174.53C53.27 175.46 54.93 176.6 55.83 177.06C56.73 177.52 59.06 178.29 60.99 178.78C63.07 179.3 65.18 179.55 66.15 179.38C67.06 179.23 69.17 178.67 70.84 178.13C72.52 177.6 74.74 176.59 75.77 175.88C76.8 175.18 78.54 173.62 79.64 172.42C80.74 171.23 82.11 169.31 82.69 168.16L83.75 166.07C88.84 166.43 90.56 166.37 90.86 166.16C91.25 165.88 91.28 165.08 90.94 163.19C90.62 161.39 90.64 159.68 91.02 157.55C91.32 155.87 92.06 153.43 92.66 152.14C93.26 150.85 94.82 148.57 96.14 147.09C97.45 145.6 98.31 144.38 98.06 144.38C97.8 144.38 96.71 145.28 95.64 146.38C94.57 147.48 92.95 149.97 92.03 151.91C90.63 154.89 90.33 156.1 90.11 159.8L89.85 164.17C82.57 163.76 79.93 163.54 79.29 163.41C78.26 163.21 78 163.45 77.18 165.39C76.65 166.63 75.3 168.43 74.11 169.51C72.76 170.72 70.94 171.75 69.18 172.31C67.22 172.94 65.55 173.14 63.57 172.99C61.62 172.83 59.97 172.33 58.18 171.34C56.61 170.48 54.91 169.01 53.86 167.61C52.9 166.35 51.86 164.36 51.54 163.19C51.22 162.03 50.97 160.12 50.98 158.96C51 157.8 51.35 155.79 51.77 154.49C52.18 153.2 53.27 151.24 54.18 150.14C55.09 149.04 56.1 148.14 56.42 148.14C56.85 148.15 56.97 147.18 56.86 144.5C56.78 142.38 56.96 140.26 57.29 139.44C57.6 138.67 58.35 137.34 58.96 136.5C59.82 135.31 60.05 134.36 60.05 132.15C60.05 130.6 60.39 128.33 60.8 127.1C61.39 125.32 61.42 124.67 60.98 123.92C60.52 123.15 60.57 122.7 61.29 121.45C62.14 119.95 62.25 119.91 65.33 119.92C67.07 119.92 68.5 119.82 68.5 119.69C68.5 119.56 68.18 118.98 67.79 118.4C67.3 117.66 67.12 116.4 67.2 114.28L67.33 111.23C71.69 108.89 74.43 107.75 76.24 107.19C78.05 106.64 81.64 105.8 84.22 105.34C86.8 104.88 91.55 104.27 94.77 104C98 103.73 103.75 103.39 107.56 103.25L114.48 103C114.48 105.24 114.6 105.31 115.77 104.94C116.48 104.71 118.32 103.99 119.87 103.34C122.57 102.19 122.7 102.06 122.92 100.2C123.14 98.44 123.05 98.23 121.98 97.97C121.34 97.81 115.64 97.81 109.32 97.98C102.99 98.14 94.87 98.43 91.25 98.61C85.63 98.89 84.43 98.82 82.93 98.14C81.96 97.71 80.63 97.35 79.97 97.35C79.32 97.35 78.27 97.87 77.65 98.51Z" />
		<path id="Path 10" class="shp5" d="M123.41 98.35C123.04 98.68 122.78 99.6 122.84 100.38C122.89 101.17 122.68 102.08 122.37 102.41C121.91 102.88 122.27 102.99 124.12 102.99C125.4 102.99 128.24 103.23 130.43 103.52C132.88 103.84 134.55 104.3 134.77 104.7C135.01 105.14 135.99 105.34 137.82 105.33C139.3 105.32 141.04 105.01 141.69 104.64C142.37 104.25 144.14 103.97 145.91 103.96C148.03 103.95 148.82 103.8 148.49 103.46C148.23 103.19 146.23 102.43 144.03 101.78C141.84 101.13 139.89 100.29 139.7 99.92C139.44 99.42 138.42 99.23 135.94 99.2C134.07 99.19 131.48 98.97 130.19 98.73C128.9 98.48 127 98.16 125.97 98.01C124.76 97.84 123.85 97.96 123.41 98.35Z" />
		<path id="Path 11" class="shp6" d="M147.79 98.77C143.79 98.99 140.3 99.39 140.05 99.66C139.79 99.94 139.68 100.26 139.81 100.39C139.94 100.51 141.63 101.06 143.57 101.61C145.5 102.16 147.51 102.83 148.02 103.11C148.54 103.39 149.7 103.68 150.6 103.76C151.51 103.84 152.67 103.91 153.18 103.91C153.7 103.91 155.6 103.92 157.41 103.94C159.97 103.96 160.81 104.14 161.23 104.77C161.68 105.43 162.02 105.49 163.11 105.1C164.21 104.71 164.46 104.32 164.56 102.87C164.65 101.48 164.9 101.07 165.73 100.89C166.31 100.76 167.37 100.65 168.08 100.65C168.79 100.65 170.16 101.09 171.13 101.65C172.73 102.56 173.33 102.62 177.93 102.35C181.97 102.11 182.98 101.91 182.98 101.35C182.98 100.96 182.82 100.55 182.62 100.44C182.43 100.33 180.79 100 178.99 99.7C177.18 99.41 173.8 99.09 171.48 98.99C169.16 98.89 164.51 98.71 161.16 98.59C157.8 98.47 151.79 98.55 147.79 98.77Z" />
		<path id="Path 12" fill-rule="evenodd" class="shp1" d="M167.85 100.7C168.68 100.67 170.16 101.09 171.13 101.65C172.73 102.56 173.33 102.62 177.93 102.35C180.71 102.19 182.98 101.9 182.98 101.7C182.98 101.51 189.78 101.38 198.11 101.42C206.43 101.46 215.19 101.73 217.58 102.01C219.96 102.29 224.08 102.95 226.73 103.46C229.37 103.98 232.91 104.82 234.58 105.34C236.26 105.85 240.8 107.89 244.67 109.86C248.54 111.83 254.88 115.25 258.75 117.45C262.62 119.65 267.21 122.38 272.12 125.57L280.21 125.57C284.66 125.58 291.15 125.89 294.64 126.26C298.12 126.63 303.4 127.37 306.37 127.89C309.33 128.41 313.87 129.25 316.45 129.77C319.03 130.28 322.84 131.1 324.9 131.6C326.96 132.1 330.76 133.22 333.34 134.08C335.92 134.95 338.86 136.3 339.87 137.08C340.88 137.86 342.14 139.1 342.68 139.83C343.55 141 343.66 141.76 343.61 146.41C343.58 149.3 343.47 154.47 343.38 157.9C343.2 163.86 343.14 164.21 341.91 165.78C340.85 167.13 340.14 167.52 337.92 167.94C336.44 168.23 333.43 168.54 327.25 168.81L325.72 171.76C324.88 173.39 323.08 175.82 321.73 177.18C320.36 178.55 317.97 180.27 316.34 181.06C314.72 181.84 312.4 182.72 311.18 183.02C309.95 183.31 307.79 183.44 306.37 183.3C304.95 183.16 302.31 182.45 300.5 181.71C298.15 180.76 296.37 179.58 294.23 177.55C292.41 175.82 290.71 173.66 289.89 172.01C288.95 170.13 288.32 169.38 287.84 169.54C287.45 169.67 261.53 169.78 230.24 169.78C173.58 169.78 173.36 169.78 172.65 168.83C171.97 167.9 171.93 167.92 171.31 169.65C170.96 170.62 170.08 172.38 169.36 173.54C168.64 174.7 167.08 176.56 165.89 177.65C164.71 178.75 162.1 180.43 160.1 181.38C157.61 182.57 155.59 183.18 153.65 183.33C151.62 183.49 149.89 183.27 147.44 182.54C145.43 181.95 142.83 180.7 141.1 179.51C139.49 178.39 137.38 176.43 136.41 175.15C135.43 173.88 134.06 171.32 133.36 169.46C132.25 166.56 131.96 166.15 131.25 166.52C130.75 166.79 129.93 166.79 129.14 166.52C128.43 166.28 125.84 165.97 123.39 165.82C120.94 165.68 117.14 165.35 114.95 165.09C112.75 164.83 109.74 164.3 108.26 163.91C106.78 163.51 105.02 162.82 104.36 162.37C103.7 161.92 103.07 161.18 102.95 160.72C102.84 160.27 101.85 159.15 98.76 156.55L98.58 150.11C98.45 145.77 98.59 143.06 98.99 141.79C99.31 140.76 100.06 139.38 100.65 138.74C101.54 137.77 101.77 136.86 101.97 133.56C102.11 131.37 102.36 128.83 102.53 127.92C102.75 126.76 102.65 126.19 102.21 125.97C101.72 125.73 101.83 125.29 103.89 122.28L107.66 122.28C109.73 122.28 112.59 122.06 114.01 121.78C115.43 121.51 117.33 121.2 118.23 121.11C119.13 121.01 121.3 120.82 123.04 120.67C124.78 120.52 126.21 120.18 126.21 119.93C126.21 119.67 126.47 119.53 126.79 119.62C127.12 119.72 128.65 119.16 130.19 118.39C131.74 117.61 136.6 115.52 140.99 113.74C145.37 111.95 149.59 110.21 150.37 109.87C151.14 109.52 152.94 108.87 154.36 108.42C156.25 107.82 157.06 107.74 157.41 108.13C157.66 108.42 158.14 108.65 158.46 108.65C158.78 108.64 159.05 108.22 159.05 107.7C159.05 107.08 159.58 106.53 160.57 106.1C161.41 105.74 162.68 105.21 163.39 104.93C164.48 104.48 164.66 104.16 164.56 102.79C164.48 101.52 164.65 101.14 165.39 100.97C165.9 100.85 167.01 100.73 167.85 100.7ZM209.93 108.17C210.11 108.81 210.56 110.03 210.93 110.87C211.29 111.71 211.91 112.4 212.3 112.4C212.69 112.4 215.8 114.02 219.22 116C222.64 117.98 226.49 120.31 227.78 121.17L230.13 122.75C242.85 122.78 247.46 122.94 248.57 123.12C250.24 123.39 250.68 123.31 251.04 122.63C251.28 122.18 252.06 121.52 252.76 121.18L254.05 120.54C251.51 118.68 248.77 116.91 246.31 115.42C243.86 113.93 240.59 112.13 239.04 111.42C237.49 110.72 234.54 109.71 232.47 109.18C230.41 108.66 226.19 107.81 223.09 107.29C219.99 106.77 215.82 106.24 213.81 106.12C211.28 105.96 210.07 106.06 209.88 106.44C209.73 106.74 209.75 107.52 209.93 108.17ZM171.95 108.05C170.62 108.33 170.03 108.71 169.93 109.36C169.85 109.87 170.2 111.34 170.7 112.64C171.58 114.88 171.89 115.15 177.18 118.33L182.74 121.67C199.72 121.96 204.73 121.88 204.84 121.69C204.94 121.5 204.8 119.59 204.51 117.46C204.23 115.32 203.75 113.21 203.46 112.77C203.16 112.32 200.49 110.8 197.52 109.38C192.73 107.1 191.7 106.78 188.37 106.57C186.31 106.44 182.19 106.63 179.22 107C176.26 107.36 172.98 107.83 171.95 108.05ZM154.32 115.58C154.04 116.29 153.93 117.72 154.08 118.75C154.23 119.78 154.85 121.27 155.46 122.04C156.07 122.82 157.07 123.73 157.69 124.07C158.53 124.52 159.14 124.55 160.1 124.18C161.08 123.81 161.39 123.37 161.39 122.39C161.39 121.68 161.81 120.31 162.33 119.34C162.86 118.35 163.16 117.11 163.03 116.52C162.89 115.93 162.73 115.45 162.67 115.43C162.62 115.42 161.99 115.05 161.28 114.61C160.57 114.17 159.5 113.5 158.9 113.12C157.93 112.5 157.67 112.52 156.32 113.35C155.5 113.86 154.6 114.86 154.32 115.58ZM302.5 149.81C302.3 149.93 302.14 150.45 302.14 150.97C302.14 151.75 302.3 151.83 303.08 151.44C303.6 151.18 304.44 150.97 304.96 150.97C305.8 150.97 305.9 151.28 305.9 154.02C305.9 156 305.69 157.18 305.31 157.36C304.99 157.52 304.01 156.94 303.14 156.07L301.55 154.49C302.08 160.85 301.98 161.78 301.37 162.72C300.94 163.37 300.26 164.17 299.85 164.49C299.2 165.01 299.31 165.09 300.62 165.08C301.46 165.08 302.15 165.23 302.15 165.43C302.15 165.62 301.1 166.84 299.81 168.13L297.47 170.48C295.99 167 295.27 166.01 294.87 166.01C294.49 166.01 294.17 166.28 294.18 166.6C294.18 166.93 294.58 168.04 295.05 169.07C295.53 170.11 296.74 171.79 297.74 172.8C298.74 173.82 300.73 175.19 302.14 175.84C304.07 176.72 305.5 177.02 307.77 177.01C309.91 177.01 311.53 176.69 313.17 175.95C314.46 175.38 316.33 174.12 317.32 173.16C318.31 172.21 319.67 170.37 320.36 169.07C321.4 167.1 321.6 166.12 321.6 162.96C321.6 159.82 321.39 158.81 320.37 156.84C319.7 155.55 318.23 153.66 317.1 152.64C315.97 151.62 314.2 150.43 313.17 149.99C312.14 149.56 310.34 149.1 309.18 148.97C308.02 148.85 306.12 148.93 304.96 149.17C303.8 149.4 302.69 149.69 302.5 149.81ZM143.46 169.23L142.19 170.48C141.26 168.46 140.62 167.88 140.16 167.88C139.71 167.89 139.33 168.05 139.32 168.25C139.31 168.44 140.02 169.66 140.89 170.95C141.88 172.44 143.4 173.87 145.01 174.83C146.41 175.67 148.71 176.59 150.13 176.87C151.98 177.23 153.35 177.23 154.94 176.87C156.17 176.59 157.75 176.07 158.46 175.71C159.17 175.36 160.48 174.46 161.36 173.71C162.25 172.97 163.57 171.41 164.3 170.25C165.03 169.08 165.63 167.97 165.62 167.78C165.62 167.58 165.25 167.42 164.8 167.41C164.34 167.4 163.71 167.93 163.39 168.59C163.07 169.24 162.54 169.78 162.22 169.79C161.89 169.8 161.1 169.27 160.46 168.62C159.31 167.47 159.12 167.44 153.18 167.52C149.83 167.57 146.56 167.69 145.91 167.79C145.27 167.89 144.17 168.54 143.46 169.23Z" />
		<path id="Path 13" class="shp6" d="M121.23 103.23C121.33 103.49 121.64 104.6 121.93 105.7C122.38 107.43 122.59 107.67 123.51 107.45C124.09 107.32 126.04 106.91 127.85 106.54C129.65 106.18 131.92 105.76 132.89 105.61C133.88 105.46 134.69 105.06 134.74 104.69C134.8 104.2 133.67 103.92 130.16 103.54C127.6 103.26 124.5 102.97 123.28 102.9C121.93 102.81 121.12 102.95 121.23 103.23Z" />
		<path id="Path 14" class="shp5" d="M118.47 103.94C117.43 104.41 116.22 104.82 115.77 104.84C115.06 104.87 114.98 105.21 115.23 107.35C115.39 108.7 115.6 109.87 115.7 109.93C115.8 110 117.36 109.47 119.16 108.76C122.22 107.55 122.42 107.38 122.15 106.29C121.98 105.64 121.67 104.64 121.45 104.05C121.23 103.47 120.89 103.01 120.69 103.03C120.5 103.05 119.5 103.46 118.47 103.94Z" />
		<path id="Path 15" class="shp4" d="M145.82 103.88C143.83 104.04 141.93 104.43 141.59 104.75C141.1 105.22 141.11 105.37 141.69 105.55C142.08 105.67 143.34 106 144.5 106.28C145.67 106.55 147.83 107.36 149.31 108.06C151.9 109.29 152.08 109.32 153.94 108.64C155 108.25 155.99 107.72 156.13 107.46C156.27 107.2 155.92 106.62 155.37 106.17C154.81 105.72 154.36 105.03 154.36 104.64C154.36 104.19 153.94 103.96 153.18 104C152.53 104.03 151.43 103.95 150.72 103.82C150.01 103.69 147.8 103.72 145.82 103.88Z" />
		<path id="Path 16" class="shp6" d="M112.37 106.06C111.59 106.42 107.37 108.12 102.98 109.84C98.6 111.56 92.79 113.98 90.08 115.22C85.87 117.14 84.34 117.57 79.52 118.23C76.43 118.65 73 118.99 71.9 118.99C70.77 118.99 69.78 119.24 69.62 119.57C69.46 119.9 69.62 120.41 69.97 120.72C70.32 121.03 72.09 121.52 73.89 121.8C75.7 122.09 82.98 122.5 90.08 122.73C97.18 122.95 103.19 122.97 103.45 122.77C103.71 122.56 106.35 122.29 109.32 122.15C112.28 122.02 115.24 121.68 115.88 121.42C117.03 120.94 117.03 120.93 116 120.9C115.42 120.88 114.51 120.28 113.98 119.57C113.19 118.51 113.04 117.72 113.16 115.22C113.28 112.58 113.45 112.1 114.36 111.7C114.94 111.44 115.48 111.01 115.56 110.75C115.64 110.5 115.58 109.17 115.41 107.82C115.21 106.1 114.91 105.36 114.44 105.38C114.08 105.39 113.14 105.7 112.37 106.06ZM193.02 106.29C193.17 106.55 193.03 106.76 192.71 106.76C192.39 106.77 194.34 107.83 197.05 109.13C199.76 110.43 202.29 111.54 202.68 111.6C203.24 111.68 203.35 111.22 203.23 109.34C203.13 107.84 202.8 106.78 202.29 106.4C201.79 106.01 199.95 105.8 197.12 105.81C194.32 105.81 192.84 105.99 193.02 106.29Z" />
		<path id="Path 17" class="shp4" d="M118.7 109.03C116.03 110.18 115.67 110.48 115.79 111.49C115.87 112.12 116.24 113.01 116.61 113.46C117.1 114.06 117.18 114.64 116.88 115.58C116.65 116.29 116.59 117.74 116.76 118.81C116.92 119.88 117.16 120.87 117.29 121C117.42 121.14 119.48 121 121.87 120.7C125.18 120.29 126.22 119.99 126.22 119.46C126.22 119.07 125.67 117.16 125.01 115.22C124.35 113.28 123.65 110.85 123.47 109.81C123.27 108.71 122.84 107.89 122.44 107.82C122.06 107.76 120.38 108.31 118.7 109.03Z" />
		<path id="Path 18" class="shp6" d="M165.85 109.44C163.49 110.03 163.15 110.24 163.74 110.73C164.13 111.05 165.87 112.09 167.61 113.03C169.35 113.98 170.87 114.59 170.97 114.4C171.08 114.21 170.78 112.88 170.3 111.46C169.82 110.04 169.26 108.84 169.05 108.81C168.84 108.77 167.4 109.05 165.85 109.44Z" />
		<path id="Path 19" class="shp4" d="M160.22 111.32C159.23 111.71 158.46 112.22 158.5 112.45C158.54 112.68 159.37 113.4 160.34 114.05C161.31 114.7 162.26 115.23 162.45 115.23C162.64 115.22 162.78 114.64 162.75 113.93C162.73 113.22 162.55 112.18 162.36 111.62C162.03 110.65 161.95 110.64 160.22 111.32Z" />
		<path id="Path 20" class="shp5" d="M162.5 112.05C162.67 112.89 162.81 114.16 162.81 114.87C162.8 115.61 163.05 116.15 163.39 116.14C163.71 116.13 164.24 116.45 164.56 116.85C165.06 117.46 164.95 117.61 163.86 117.84C163.09 118 162.79 118.23 163.12 118.43C163.42 118.6 163.84 120.07 164.05 121.67L164.44 124.6C161.9 124.01 160.74 123.99 160.22 124.17C159.44 124.45 159.6 124.59 161.16 125.03C162.19 125.32 168.31 125.78 174.77 126.04C181.22 126.31 190.88 126.57 196.25 126.63C205.76 126.74 206 126.72 205.87 125.8C205.73 124.89 205.28 124.86 190.26 124.63L174.8 124.39C172.51 118.2 171.93 116.13 172.02 115.81C172.11 115.49 171.92 115.07 171.6 114.88C171.28 114.7 170.8 114.51 170.54 114.46C170.28 114.41 168.49 113.5 166.55 112.43C164.62 111.37 162.85 110.5 162.61 110.51C162.38 110.51 162.33 111.21 162.5 112.05Z" />
		<path id="Path 21" class="shp6" d="M211.6 112.75C211.6 112.95 212.39 115.52 213.36 118.46C214.64 122.36 215.37 123.91 216.05 124.19C216.57 124.39 219.95 125.11 223.56 125.77C229.36 126.84 231.35 126.98 240.57 126.98L251.01 126.98C250.55 124.61 250.22 123.71 249.98 123.45C249.73 123.18 245.32 122.88 239.6 122.75L229.66 122.51C226.39 120.25 222.64 117.97 219.22 116C215.8 114.02 212.69 112.4 212.3 112.4C211.91 112.4 211.6 112.56 211.6 112.75Z" />
		<path id="Path 22" class="shp4" d="M172.08 116.01C171.95 116.23 172.5 118.2 173.32 120.4L174.8 124.39C204.5 124.62 205.5 124.58 205.49 123.81C205.48 123.35 205.33 122.77 205.14 122.51C204.93 122.23 200.36 121.97 193.77 121.87L182.74 121.69C175.83 117.45 173.49 116.09 173.08 115.92C172.67 115.76 172.22 115.8 172.08 116.01ZM162.4 119.22C162.12 119.61 161.75 120.83 161.59 121.92C161.29 123.88 161.31 123.93 162.74 124.16C163.83 124.33 164.2 124.21 164.21 123.69C164.21 123.3 164.11 121.98 163.98 120.75C163.84 119.52 163.55 118.51 163.32 118.51C163.09 118.51 162.68 118.83 162.4 119.22Z" />
		<path id="Path 23" class="shp5" d="M68.5 119.34C68.5 119.75 67.55 119.92 65.33 119.92C62.25 119.91 62.14 119.95 61.29 121.45C60.57 122.7 60.52 123.15 60.98 123.92C61.42 124.67 61.39 125.32 60.8 127.1C60.39 128.33 60.05 130.6 60.05 132.15C60.05 134.37 59.82 135.3 58.95 136.5C58.34 137.34 57.71 138.4 57.54 138.86C57.27 139.58 57.44 139.64 59 139.33C59.97 139.13 62.88 138.97 65.48 138.97C69.95 138.97 70.37 139.06 73.69 140.69C76.19 141.92 77.89 143.18 79.68 145.16C81.06 146.67 82.7 148.97 83.32 150.26C83.94 151.55 84.68 153.88 84.96 155.43C85.25 156.99 85.41 159.46 85.32 160.92C85.16 163.56 85.17 163.59 86.56 163.87C87.34 164.02 88.39 164.14 88.91 164.14C89.76 164.14 89.87 163.73 90.11 159.79C90.33 156.33 90.67 154.8 91.78 152.38C92.55 150.69 93.84 148.47 94.65 147.44C95.46 146.4 96.61 145.29 97.2 144.96C97.9 144.58 98.51 143.57 98.91 142.14C99.24 140.91 100.02 139.38 100.62 138.74C101.54 137.75 101.76 136.91 101.97 133.56C102.11 131.37 102.36 128.83 102.53 127.92C102.75 126.76 102.65 126.18 102.21 125.96C101.7 125.71 101.73 125.42 102.4 124.43L103.22 123.22C96.49 122.88 90.53 122.67 85.62 122.53C80.72 122.39 75.34 122.06 73.66 121.79C71.24 121.41 70.39 121.04 69.56 120.03C68.98 119.33 68.5 119.01 68.5 119.34ZM215.92 125.54L216.29 126.98C222.65 126.93 224.9 126.75 225.39 126.55C226.01 126.3 224.86 125.94 221.64 125.37C219.08 124.92 216.67 124.45 216.27 124.33C215.69 124.15 215.62 124.37 215.92 125.54Z" />
		<path id="Path 24" class="shp6" d="M59.16 139.35C58.02 139.66 57.05 140.17 57 140.49C56.93 140.93 57.39 140.89 58.83 140.36C59.89 139.97 61.81 139.52 63.1 139.37C64.39 139.22 66.72 139.36 68.26 139.67C69.81 139.99 72.24 140.8 73.66 141.48C75.08 142.16 77.33 143.78 78.65 145.08C80.15 146.54 81.67 148.69 82.64 150.73C84.13 153.83 84.22 154.31 84.22 159.08C84.22 162.13 84.4 164.13 84.68 164.13C84.94 164.13 85.22 162.71 85.29 160.96C85.36 159.21 85.2 156.62 84.93 155.2C84.66 153.78 83.93 151.55 83.31 150.26C82.7 148.97 81.06 146.67 79.68 145.16C77.89 143.18 76.19 141.92 73.68 140.69C70.48 139.12 69.81 138.96 65.71 138.88C63.24 138.82 60.3 139.03 59.16 139.35Z" />
		<path id="Path 25" class="shp5" d="M60.05 139.98C58.63 140.36 57.31 140.77 57.12 140.89C56.93 141 56.77 142.46 56.77 144.15C56.77 145.83 56.82 147.21 56.89 147.21C56.95 147.22 58.06 146.77 59.35 146.22C60.94 145.54 62.68 145.21 64.75 145.2C66.99 145.2 68.47 145.5 70.38 146.36C71.79 147 73.59 148.06 74.36 148.71C75.14 149.36 76.4 151.04 77.18 152.43C78.44 154.71 78.59 155.38 78.59 159.1C78.59 162.84 78.68 163.26 79.52 163.48C80.04 163.61 81.31 163.65 82.34 163.57L84.22 163.43C84.21 154.37 84.09 153.78 82.64 150.73C81.66 148.68 80.16 146.55 78.65 145.08C77.33 143.78 75.08 142.16 73.66 141.49C72.24 140.81 69.97 140.02 68.62 139.73C67.26 139.44 65.36 139.22 64.39 139.24C63.43 139.26 61.47 139.59 60.05 139.98ZM148.26 142.56C147.1 142.79 144.77 143.65 143.1 144.46C141.27 145.34 139.06 146.93 137.58 148.45C136.22 149.84 134.5 152.28 133.73 153.9C132.96 155.52 132.07 158.33 131.75 160.14C131.31 162.63 131.3 163.71 131.71 164.6C132.19 165.66 132.25 165.52 132.29 163.19C132.31 161.77 132.55 159.65 132.82 158.49C133.09 157.33 133.88 155.23 134.57 153.83C135.26 152.44 136.9 150.21 138.22 148.9C139.53 147.58 141.85 145.89 143.38 145.14C144.9 144.4 147.36 143.55 148.85 143.26C150.34 142.97 151.55 142.58 151.55 142.38C151.54 142.19 151.28 142.05 150.96 142.08C150.63 142.11 149.42 142.32 148.26 142.56ZM152.95 142.38C152.95 142.58 154.16 142.97 155.65 143.25C157.13 143.53 159.61 144.34 161.16 145.05C162.99 145.89 164.96 147.36 166.8 149.24C169.06 151.56 169.89 152.85 170.94 155.67C171.83 158.07 172.27 160.22 172.33 162.42C172.38 164.19 172.58 165.72 172.77 165.83C172.96 165.93 173.12 164.69 173.12 163.08C173.11 161.46 172.83 159.08 172.49 157.78C172.14 156.49 171.21 154.27 170.41 152.85C169.62 151.42 167.95 149.25 166.7 148.03C165.46 146.8 163.49 145.28 162.33 144.64C161.17 144.01 158.85 143.17 157.17 142.77C155.49 142.37 153.86 142.04 153.54 142.04C153.21 142.03 152.95 142.19 152.95 142.38Z" />
		<path id="Path 26" class="shp6" d="M298.86 144.21C297.44 144.89 295.35 146.21 294.21 147.15C293.08 148.08 291.45 149.91 290.61 151.2C289.76 152.49 288.75 154.29 288.37 155.2C288 156.1 287.44 158.22 287.14 159.9C286.84 161.58 286.72 163.75 286.87 164.72C287.01 165.69 287.29 166.48 287.48 166.48C287.68 166.48 287.76 165.47 287.66 164.25C287.57 163.02 287.73 160.85 288.02 159.43C288.31 158.01 289.15 155.57 289.88 154.02C290.75 152.17 292.16 150.31 293.99 148.61C295.51 147.19 297.98 145.45 299.46 144.73C300.93 144.02 302.14 143.33 302.14 143.21C302.14 143.08 301.99 142.97 301.79 142.98C301.6 142.98 300.28 143.53 298.86 144.21ZM62.63 145.3C61.6 145.45 59.91 145.94 58.88 146.4C57.19 147.15 56.99 147.42 56.89 149.1C56.82 150.13 56.98 151.76 57.24 152.73C57.5 153.7 58.61 155.47 59.71 156.66C60.8 157.86 61.95 159.23 62.25 159.72C62.8 160.58 62.81 160.58 62.83 159.67C62.84 159.15 63.11 158.46 63.42 158.14C63.74 157.81 64.48 157.55 65.07 157.55C65.79 157.55 66.25 157.9 66.44 158.61C66.65 159.35 66.44 159.91 65.74 160.49C64.75 161.31 64.75 161.31 66.5 161.74C67.47 161.97 68.84 162.29 69.55 162.44C70.57 162.66 70.79 162.57 70.61 162.02C70.42 161.44 70.92 161.31 73.42 161.31C76.24 161.31 76.46 161.38 76.24 162.25C76.05 163 76.24 163.19 77.18 163.19C78.07 163.19 78.42 162.89 78.65 161.9C78.82 161.19 78.85 159.34 78.73 157.78C78.58 155.89 78.06 154.13 77.14 152.43C76.39 151.04 75.14 149.36 74.36 148.71C73.59 148.06 71.9 147.05 70.61 146.47C69.32 145.9 67.42 145.34 66.39 145.23C65.36 145.12 63.67 145.15 62.63 145.3Z" />
		<path id="Path 27" class="shp5" d="M96.03 147.24C94.78 148.64 93.27 150.85 92.67 152.14C92.06 153.43 91.33 155.87 91.03 157.55C90.73 159.23 90.62 161.45 90.79 162.49C90.95 163.52 91.18 164.74 91.29 165.19C91.45 165.86 92.01 166.01 94.19 166.01L96.88 166.01C96.88 158.02 97.1 156.34 97.72 154.95C98.37 153.51 98.53 152.13 98.43 148.88L98.29 144.68L96.03 147.24ZM60.66 147.83C59.83 148.13 58.88 148.64 58.55 148.97C58.06 149.45 58.34 149.95 60.05 151.65C61.21 152.81 62.32 153.65 62.52 153.53C62.71 153.41 62.87 151.94 62.87 150.26C62.87 148.58 62.71 147.22 62.52 147.24C62.32 147.26 61.49 147.52 60.66 147.83ZM66.86 147.51C66.64 147.69 66.5 149.06 66.54 150.57C66.59 152.08 66.78 153.41 66.97 153.53C67.17 153.65 68.38 152.72 69.67 151.45L72.02 149.16C69.84 148.1 68.76 147.66 68.23 147.49C67.69 147.33 67.07 147.34 66.86 147.51ZM148.96 149.02C148.19 149.23 146.81 149.77 145.91 150.23C145.01 150.69 143.46 151.84 142.47 152.78C141.48 153.72 140.27 155.29 139.77 156.26C139.28 157.23 138.64 159.13 138.36 160.49C138.07 161.85 137.97 163.65 138.12 164.49C138.33 165.61 138.66 166.01 139.34 166.01C139.86 166.01 140.28 165.8 140.28 165.54C140.28 165.28 141.69 165.07 143.57 165.07C145.44 165.07 146.85 165.28 146.85 165.54C146.85 165.83 149.04 166.01 152.48 166.01C155.92 166.01 158.11 165.83 158.11 165.54C158.11 165.28 159.44 165.07 161.16 165.07C162.88 165.07 164.21 165.28 164.21 165.54C164.21 165.8 164.79 166.02 165.5 166.02L166.79 166.02C166.32 159.56 165.95 158.15 164.88 156.19C164.13 154.79 162.66 152.95 161.63 152.1C160.6 151.25 158.91 150.21 157.88 149.78C156.84 149.35 154.73 148.92 153.18 148.83C151.64 148.73 149.74 148.82 148.96 149.02Z" />
		<path id="Path 28" class="shp6" d="M300.27 150.88C299.11 151.61 297.54 152.93 296.79 153.82C296.04 154.71 295.06 156.28 294.6 157.31C294.15 158.35 293.74 160.04 293.69 161.08C293.65 162.11 293.63 163.65 293.65 164.49C293.69 165.76 293.9 166.03 294.87 166.13C295.64 166.21 295.96 166.05 295.81 165.66C295.65 165.26 296.12 165.07 297.34 165.07C298.3 165.06 299.32 164.9 299.59 164.71C299.86 164.52 300.45 163.84 300.89 163.19C301.32 162.55 301.68 161.75 301.68 161.43C301.68 161.02 300.75 160.84 298.63 160.84C295.69 160.84 295.59 160.8 295.87 159.78C296.03 159.2 296.45 158.14 296.81 157.43C297.16 156.72 297.61 156.13 297.8 156.13C298 156.13 298.9 156.88 299.8 157.81L301.44 159.49C301.84 155.37 301.72 154.2 301.33 153.67C300.85 153 300.86 152.78 301.37 152.49C301.72 152.3 302.1 151.56 302.22 150.85C302.34 150.14 302.42 149.55 302.4 149.55C302.39 149.55 301.43 150.15 300.27 150.88Z" />
		<path id="Path 29" class="shp1" d="M147.32 151.93L145.21 152.87C148.84 156.51 149.95 157.56 150.02 157.56C150.08 157.55 150.13 156.07 150.13 154.26C150.13 152.45 149.98 150.97 149.78 150.98C149.59 150.98 148.48 151.41 147.32 151.93ZM154.36 154.02C154.36 155.7 154.51 157.18 154.71 157.29C154.9 157.41 156.12 156.47 157.41 155.19L159.75 152.87C156.48 151.41 155.27 150.98 154.94 150.98C154.53 150.97 154.36 151.88 154.36 154.02ZM302.61 151.93L300.5 152.87C303.78 156.14 304.88 157.09 305.08 157.09C305.27 157.08 305.43 155.7 305.43 154.02C305.43 152.34 305.27 150.97 305.08 150.98C304.88 150.98 303.78 151.41 302.61 151.93Z" />
		<path id="Path 30" class="shp6" d="M305.58 154.02C305.58 155.83 305.67 156.47 305.77 155.43C305.87 154.4 305.87 152.92 305.77 152.14C305.66 151.37 305.58 152.21 305.58 154.02Z" />
		<path id="Path 31" class="shp1" d="M309.65 154.02C309.65 156.15 309.83 157.08 310.24 157.09C310.56 157.09 311.61 156.3 312.58 155.32C313.54 154.35 314.33 153.29 314.34 152.96C314.34 152.64 313.5 152.06 312.47 151.67C311.43 151.28 310.38 150.97 310.12 150.97C309.86 150.97 309.65 152.3 309.65 154.02Z" />
		<path id="Path 32" class="shp4" d="M54.23 152.95C53.83 153.54 53.33 154.84 53.14 155.83L52.78 157.64L60.42 157.31C58.14 154.75 56.91 153.53 56.22 152.94L54.97 151.87L54.23 152.95Z" />
		<path id="Path 33" class="shp5" d="M72.25 154.39C71.11 155.5 70.22 156.56 70.27 156.74C70.33 156.93 71.75 157.08 73.42 157.08C75.82 157.08 76.47 156.93 76.47 156.37C76.47 155.99 76.11 154.92 75.65 154.01C75.2 153.1 74.72 152.36 74.58 152.37C74.44 152.37 73.39 153.28 72.25 154.39Z" />
		<path id="Path 34" class="shp4" d="M97.58 155.1C97.26 155.8 96.89 157.86 96.76 159.67C96.62 161.52 96.75 163.73 97.05 164.72C97.48 166.14 97.77 166.44 98.53 166.25C99.3 166.06 99.42 165.73 99.23 164.37L98.99 162.72L104.08 162.49C101.92 159.29 101.15 158.69 100.27 158.61C99.08 158.5 99 158.34 99.04 156.4C99.07 155.25 98.88 154.2 98.63 154.06C98.38 153.93 97.91 154.39 97.58 155.1Z" />
		<path id="Path 35" class="shp1" d="M141.33 158.17C140.75 159.38 140.33 160.48 140.4 160.61C140.46 160.74 141.95 160.79 143.7 160.73L146.89 160.61L142.38 155.96L141.33 158.17ZM159.98 158.16C158.84 159.26 157.95 160.32 158.01 160.51C158.06 160.69 159.48 160.84 161.16 160.84C163.56 160.84 164.21 160.69 164.21 160.14C164.21 159.75 163.84 158.69 163.39 157.77C162.94 156.86 162.45 156.12 162.31 156.13C162.17 156.13 161.12 157.05 159.98 158.16ZM296.82 157.43C296.46 158.14 296.03 159.2 295.87 159.78C295.59 160.81 295.68 160.84 298.86 160.84C300.67 160.84 302.14 160.68 302.14 160.49C302.14 160.29 301.24 159.23 300.14 158.13C299.05 157.03 298 156.13 297.81 156.13C297.63 156.14 297.18 156.72 296.82 157.43ZM315.28 158.16C314.14 159.26 313.25 160.32 313.3 160.51C313.36 160.69 314.78 160.84 316.45 160.84C318.85 160.84 319.5 160.69 319.5 160.14C319.5 159.75 319.13 158.69 318.68 157.77C318.23 156.86 317.75 156.12 317.61 156.13C317.47 156.13 316.42 157.05 315.28 158.16Z" />
		<path id="Path 36" class="shp5" d="M63.34 158.11C62.98 158.42 62.72 159.06 62.77 159.52C62.83 159.99 63.29 160.58 63.81 160.84C64.52 161.2 64.99 161.11 65.74 160.49C66.44 159.91 66.65 159.35 66.44 158.61C66.25 157.9 65.79 157.55 65.07 157.55C64.48 157.55 63.7 157.8 63.34 158.11Z" />
		<path id="Path 37" class="shp4" d="M60.11 158.73C59.71 159.27 59.75 159.49 60.29 159.67C60.68 159.8 61.2 159.8 61.46 159.67C61.72 159.54 61.82 159.11 61.7 158.73C61.57 158.34 61.27 158.02 61.04 158.02C60.82 158.02 60.39 158.34 60.11 158.73Z" />
		<path id="Path 38" class="shp6" d="M319.49 160.25C319.5 160.65 318.57 160.87 316.57 160.93L313.64 161.02C317.84 161.29 319.31 161.14 319.63 160.87C319.95 160.61 320.04 160.22 319.84 160.03C319.64 159.83 319.48 159.93 319.49 160.25Z" />
		<path id="Path 39" class="shp4" d="M53.02 161.78C53.02 162.3 53.33 163.46 53.72 164.37C54.11 165.27 54.58 166.02 54.78 166.02C54.97 166.02 56.14 165.02 57.37 163.79C58.6 162.55 59.44 161.38 59.24 161.18C59.04 160.98 57.56 160.82 55.95 160.83C53.33 160.84 53.02 160.94 53.02 161.78Z" />
		<path id="Path 40" class="shp5" d="M70.48 161.9C70.59 162.22 71.83 162.63 73.23 162.8C74.63 162.97 75.93 163.02 76.12 162.92C76.32 162.81 76.47 162.41 76.47 162.02C76.47 161.46 75.82 161.31 73.37 161.31C71.09 161.31 70.32 161.47 70.48 161.9Z" />
		<path id="Path 41" class="shp1" d="M150.79 161.9C150.65 162.22 150.61 162.91 150.69 163.43C150.81 164.11 151.22 164.37 152.2 164.37C152.94 164.37 153.78 164.02 154.07 163.59C154.47 162.99 154.42 162.62 153.89 162.04C153.5 161.62 152.7 161.28 152.12 161.29C151.53 161.3 150.93 161.58 150.79 161.9ZM306.3 162.06C305.82 162.62 305.79 163 306.18 163.59C306.47 164.02 307.1 164.44 307.59 164.52C308.08 164.6 308.74 164.34 309.07 163.93C309.48 163.41 309.51 162.92 309.18 162.25C308.92 161.74 308.31 161.31 307.83 161.31C307.34 161.31 306.65 161.65 306.3 162.06Z" />
		<path id="Path 42" class="shp4" d="M64.1 162.7C63.94 162.97 63.91 163.4 64.04 163.66C64.17 163.92 64.59 164.13 64.98 164.13C65.37 164.13 65.63 163.79 65.57 163.35C65.5 162.92 65.21 162.48 64.92 162.38C64.63 162.28 64.26 162.43 64.1 162.7Z" />
		<path id="Path 43" class="shp5" d="M101.69 162.61C99.91 162.68 99 162.92 99 163.31C99 163.63 99.11 164.37 99.24 164.96C99.42 165.83 99.77 166.01 101.22 165.99C102.59 165.97 103.24 165.65 104.16 164.55C104.86 163.7 105.14 163 104.86 162.81C104.6 162.63 103.18 162.54 101.69 162.61Z" />
		<path id="Path 44" class="shp4" d="M72.72 164.37C73.62 165.28 74.52 166.03 74.72 166.02C74.91 166.02 75.38 165.38 75.77 164.6C76.47 163.19 76.47 163.19 74.95 162.95C74.11 162.82 72.9 162.71 72.25 162.71C71.09 162.71 71.09 162.72 72.72 164.37ZM104.12 164.37C103.49 165.01 103.09 165.63 103.22 165.73C103.35 165.84 104.61 165.97 106.03 166.03C107.45 166.08 108.98 166.11 109.43 166.07C109.93 166.04 110.21 165.69 110.14 165.2C110.06 164.67 109.28 164.16 107.96 163.78C106.82 163.46 105.75 163.19 105.57 163.19C105.4 163.19 104.74 163.72 104.12 164.37ZM59.76 166.96L57.47 169.28C60.75 170.74 61.96 171.17 62.28 171.18C62.69 171.18 62.88 170.25 62.92 168.16C62.94 166.49 62.76 165.02 62.5 164.89C62.25 164.76 61.01 165.69 59.76 166.96ZM66.62 167.9C66.62 170.51 66.77 171.19 67.33 171.19C67.71 171.19 68.87 170.76 69.91 170.25C70.94 169.73 71.78 169.15 71.78 168.95C71.77 168.76 70.88 167.7 69.78 166.6C68.69 165.49 67.53 164.59 67.21 164.6C66.8 164.6 66.62 165.58 66.62 167.9ZM111.67 165.3C111.67 165.69 112.14 166.14 112.72 166.3C113.3 166.46 114.72 167.46 115.88 168.53L118 170.48L113.77 166L118.93 165.9C115.3 165.37 113.67 165.08 112.96 164.9C112 164.66 111.68 164.76 111.67 165.3Z" />
		<path id="Path 45" class="shp1" d="M140.53 166.13C140.72 166.71 141.16 167.77 141.51 168.48C141.87 169.2 142.32 169.78 142.51 169.78C142.7 169.79 143.76 168.89 144.85 167.79C145.94 166.68 146.84 165.62 146.84 165.43C146.85 165.23 145.35 165.07 143.52 165.07C140.28 165.07 140.2 165.1 140.53 166.13ZM158.1 165.43C158.1 165.62 159.05 166.73 160.2 167.9C161.36 169.06 162.4 169.91 162.5 169.78C162.6 169.65 163.03 168.85 163.45 168.01C163.87 167.17 164.21 166.17 164.21 165.78C164.21 165.22 163.56 165.07 161.16 165.07C159.48 165.07 158.11 165.23 158.1 165.43ZM296.02 166.37C296.21 167.08 296.61 168.14 296.91 168.72C297.21 169.3 297.61 169.78 297.8 169.78C298 169.79 299.05 168.89 300.14 167.79C301.24 166.68 302.14 165.62 302.14 165.43C302.14 165.23 300.69 165.07 298.9 165.07L295.66 165.07L296.02 166.37ZM313.4 165.43C313.39 165.62 314.34 166.73 315.5 167.9C316.66 169.06 317.69 169.91 317.79 169.78C317.89 169.65 318.32 168.85 318.74 168.01C319.16 167.17 319.5 166.17 319.5 165.78C319.5 165.22 318.85 165.07 316.45 165.07C314.78 165.07 313.4 165.23 313.4 165.43Z" />
		<path id="Path 46" fill-rule="evenodd" class="shp6" d="M97.35 165.78L98.64 167.78C99.35 168.88 100.51 170.34 101.22 171.02C101.93 171.7 103.67 172.8 105.09 173.46C106.99 174.35 108.48 174.67 110.72 174.69C112.66 174.7 114.54 174.39 115.88 173.84C117.05 173.36 118.82 172.31 119.82 171.49C120.83 170.68 122.2 169.08 124.1 165.89L126.75 166.07C128.21 166.17 129.58 166.41 129.8 166.61C130.02 166.8 129.77 167.85 129.26 168.95C128.74 170.04 127.57 171.89 126.65 173.06C125.73 174.23 123.83 176.03 122.43 177.05C120.99 178.1 118.38 179.39 116.47 179.99C114.6 180.58 112.07 181.07 110.84 181.07C109.62 181.07 107.13 180.58 105.33 179.96C103.52 179.35 101.41 178.53 100.64 178.12C99.86 177.72 97.93 176.05 96.35 174.41C94.76 172.77 93.02 170.42 92.48 169.19C91.93 167.96 91.49 166.74 91.49 166.49C91.49 166.23 92.81 165.96 94.42 165.9L97.35 165.78ZM118.47 165.57L119.95 165.68C120.76 165.73 121.55 165.89 121.7 166.01C121.85 166.14 121.71 166.63 121.39 167.1C120.84 167.9 120.75 167.88 119.64 166.76L118.47 165.57ZM101.09 166.01C102.69 166.01 102.71 166.04 101.92 166.97C101.47 167.5 101 167.92 100.87 167.91C100.74 167.91 100.37 167.48 100.04 166.96C99.49 166.08 99.56 166.01 101.09 166.01ZM139.5 166.01C140.37 166.01 140.79 166.28 140.87 166.91C140.95 167.52 140.65 167.85 139.94 167.97C139.36 168.06 138.89 167.97 138.88 167.78C138.88 167.58 138.74 167.11 138.57 166.72C138.34 166.19 138.57 166.01 139.5 166.01ZM152.46 165.99C157.22 165.98 158.46 166.11 158.93 166.7C159.45 167.34 159.13 167.44 156.23 167.54C153.85 167.63 152.95 167.5 152.95 167.07C152.95 166.75 152.63 166.49 152.25 166.49C151.86 166.49 151.62 166.75 151.72 167.07C151.84 167.5 151.02 167.66 148.67 167.66C146.89 167.66 145.4 167.54 145.35 167.4C145.3 167.26 145.55 166.89 145.91 166.58C146.34 166.21 148.58 166.01 152.46 165.99ZM165.19 166.01C165.73 166.01 166.08 166.34 166.08 166.84C166.07 167.43 165.74 167.63 164.9 167.54C164.08 167.46 163.82 167.22 164.01 166.72C164.17 166.33 164.69 166.01 165.19 166.01ZM108.24 166.49C108.67 166.49 108.85 167.35 108.85 169.54C108.85 172.29 108.75 172.6 107.91 172.6C107.39 172.6 106.28 172.25 105.45 171.83C104.61 171.41 103.82 170.99 103.69 170.88C103.56 170.78 104.39 169.75 105.54 168.59C106.69 167.43 107.91 166.49 108.24 166.49ZM113.19 166.48C113.51 166.47 114.72 167.42 115.88 168.59C117.05 169.75 117.89 170.79 117.76 170.91C117.63 171.03 116.58 171.55 115.42 172.06C114.25 172.58 113.15 172.91 112.95 172.8C112.76 172.69 112.6 171.22 112.6 169.54C112.6 167.41 112.78 166.48 113.19 166.48ZM150.26 168.74C150.46 168.92 150.56 170.45 150.36 175.19L150.13 171.8C150 169.93 150.06 168.56 150.26 168.74ZM305.56 168.74C305.75 168.92 305.86 170.45 305.65 175.19L305.42 171.8C305.3 169.93 305.36 168.56 305.56 168.74Z" />
		<path id="Path 47" class="shp1" d="M147.3 170.92L145.21 173C148.3 174.51 149.41 174.95 149.66 174.95C149.93 174.95 150.13 173.62 150.13 171.89C150.13 170.21 149.97 168.84 149.76 168.84C149.56 168.84 148.45 169.77 147.3 170.92ZM154.36 171.89C154.36 173.62 154.56 174.95 154.83 174.95C155.08 174.95 156.14 174.63 157.17 174.25C158.2 173.86 159.05 173.38 159.04 173.19C159.04 172.99 158.14 171.93 157.05 170.83C155.95 169.73 154.9 168.83 154.71 168.83C154.51 168.83 154.36 170.21 154.36 171.89ZM302.59 170.92L300.5 172.99C302.68 174.05 303.79 174.49 304.37 174.66C305.39 174.94 305.43 174.84 305.43 171.89C305.43 170.21 305.26 168.84 305.06 168.84C304.85 168.84 303.74 169.77 302.59 170.92ZM309.65 171.89C309.65 174.03 309.83 174.95 310.24 174.94C310.56 174.93 311.77 174.51 312.94 173.99L315.05 173.05C311.77 169.77 310.56 168.83 310.24 168.83C309.83 168.83 309.65 169.77 309.65 171.89Z" />
		<path id="Path 48" fill-rule="evenodd" class="shp4" d="M205.26 169.78C208.37 169.78 209.1 169.96 211.48 171.31C213.94 172.7 214.53 172.83 218.16 172.83C221.8 172.83 222.39 172.7 224.85 171.31C227.36 169.88 227.81 169.79 235.29 170.01L232.47 172.9C230.77 174.65 228.64 176.27 227.08 177C225.66 177.66 223.07 178.53 221.33 178.93C218.48 179.58 217.85 179.58 215 178.93C213.25 178.53 210.77 177.73 209.48 177.14C208.19 176.56 205.93 174.93 204.45 173.52C202.97 172.11 201.76 170.69 201.75 170.37C201.75 169.95 202.75 169.78 205.26 169.78ZM214.29 169.79C215.76 169.78 216.29 169.96 216.29 170.48C216.29 170.87 215.92 171.18 215.47 171.17C215.01 171.16 214.12 170.85 213.47 170.48C212.32 169.82 212.33 169.81 214.29 169.79ZM222.03 169.79C224 169.81 224.01 169.82 222.86 170.48C222.21 170.85 221.31 171.16 220.86 171.17C220.41 171.18 220.04 170.87 220.04 170.48C220.04 169.96 220.57 169.78 222.03 169.79Z" />
		<path id="Path 49" class="shp6" d="M248.71 170.84C249.03 171.42 250.36 173.03 251.67 174.41C252.98 175.8 254.9 177.42 255.93 178.02C256.96 178.61 259.29 179.55 261.09 180.09C262.9 180.64 265.22 181.08 266.25 181.08C267.29 181.08 269.61 180.64 271.41 180.09C273.22 179.55 275.54 178.61 276.58 178.02C277.61 177.42 279.52 175.8 280.83 174.41C282.14 173.03 283.46 171.42 283.77 170.84C284.31 169.78 284.3 169.78 280.68 169.8C277.28 169.82 276.94 169.91 275.4 171.29C274.5 172.1 272.81 173.19 271.65 173.71C270.18 174.37 268.54 174.66 266.25 174.66C263.97 174.66 262.33 174.37 260.86 173.71C259.7 173.19 258.01 172.1 257.1 171.29C255.57 169.91 255.23 169.82 251.8 169.8C248.14 169.78 248.14 169.78 248.71 170.84ZM259.24 170.25C259.1 170.51 259.25 170.92 259.57 171.16C259.89 171.4 261.05 171.93 262.15 172.34L264.14 173.07L264.14 169.78C260.54 169.78 259.38 169.99 259.24 170.25ZM268.36 171.42L268.36 173.07C271.46 171.93 272.62 171.4 272.94 171.16C273.26 170.92 273.42 170.51 273.29 170.25C273.16 169.99 272 169.78 270.71 169.78L268.36 169.78L268.36 171.42Z" />
	</g>
</svg>